<mxfile host="app.diagrams.net" modified="2022-01-17T22:06:29.103Z" agent="5.0 (Windows NT 10.0; Win64; x64) AppleWebKit/537.36 (KHTML, like Gecko) Chrome/97.0.4692.71 Safari/537.36 Edg/97.0.1072.62" etag="RROOLw34zBFqBCxID28B" version="16.2.7" type="github" pages="2">
  <diagram id="C5RBs43oDa-KdzZeNtuy" name="Page-1">
    <mxGraphModel dx="2031" dy="1134" grid="1" gridSize="10" guides="1" tooltips="1" connect="1" arrows="1" fold="1" page="1" pageScale="1" pageWidth="827" pageHeight="1169" math="0" shadow="0">
      <root>
        <mxCell id="WIyWlLk6GJQsqaUBKTNV-0" />
        <mxCell id="WIyWlLk6GJQsqaUBKTNV-1" parent="WIyWlLk6GJQsqaUBKTNV-0" />
        <mxCell id="ojiw7vWL5Gtbbum0V1L1-5" value="&lt;div&gt;&lt;img src=&quot;data:image/png;base64,iVBORw0KGgoAAAANSUhEUgAAAfYAAAQ6CAYAAAC2+V/UAAAAAXNSR0IArs4c6QAAIABJREFUeF7svQmUHNV96P3vnl0zowVJCIRYxWJ2AzE2GMxqdjDEwfDAeEkgcuzjOCd2SF7iJF/es/O+R0K+2D52LOPE2BjHoGOzyiIYhDEgFgcwi8AIEJsQAklII2k0e893bsFt7pSqu6uqq6rr1v3NOXNAM3W33796fnVv3aU0OTk5KXxBAAIQgAAEIFAIAiXEXog40ggIQAACEICARwCxcyNAAAIQgAAECkQAsRcomDQFAhCAAAQggNi5ByAAAQhAAAIFIoDYCxRMmgIBCEAAAhBA7NwDEIAABCAAgQIRQOwFCiZNgQAEIAABCCB27gEIQAACEIBAgQgg9gIFk6ZAAAIQgAAEEDv3AAQgAAEIQKBABBB77oKpdvgt5a5W+a0QvPIbG2oGAQi0ggBiz5r6+DaZHNsqMr5FJse2SGV0QMZHB6QyukXKE1tluDRd+sbXZl0ra8vb1j5fuie3SKWtX8qd06W9c4aUO2dIqWO6SPt0KXX0i7T3Wds+Kg4BCEAgKgHEHpVY1OuVwLevldGtq6WybbWMT5ZkdLJDtk32yJZKjwxUemTb5LQp31GLcP36vtJ2Mb9nlIdkenlI+kpD0lkak/bSpJT79pHO/n2kNG2+J3y+IAABCBSVAGJPKbKT216UkU1PycTg67Jpsk9Wj+0saybmyduTM1IqkWxrEZhVGpDd296UfTreklmlQWnrnS9dsw6RUt++QIMABCBQOAKIPeGQVjY9JiMb/lu2jZdk5eju8kJlTxme7Ey4FLKLS6CrNCr7lV+Rgztfk772inTN+YCUZx0ZNzvSQQACEMgdAcSeUEg8ob+1QrZMdMmDowfLmsq8hHImm7QILCi/Kcd0rpTpbSPSNfdYKe+E4NNiTb4QgEB2BBB7k6wrGx+S4U3PytaxijwwcpCsrezcZI4kz5rA/PJ6+XDXSunvKEv3rAOlPPtDWVeB8iAAAQgkRgCxN4FybN1dMrbpKXl49CBZOcH72iZQ5iLpwe0vyIc6npX2WYdIxy6n5qJOVAICEIBAVAKIPSoxEakMrJTh9Q/L5tGKLB35sIzwDj0GxXwm6ZQxObfrPpnRVZbuuR+U8oxD8llRagUBCECgBgHEHvHWqLxxh0xs+q28MLG73D3GkG1EfNZcfnLHw7Jf26vSNuv9Ut71DGvqTUUhAAEIIPYI98DE6zfL8JZX5ZHRAxh6j8DN1ksPbntBju58Tnr695DygvNtbQb1hgAEHCOA2EMGfOK1JTKwbZMsHzlc1lXmhEzFZbYTmFfeIKd0/Vam9+0k7btfaHtzqD8EIOAAAcQeIsgTr/5U3h7cJr8YPlq2TvaGSMElRSLQXxqUs7ofkVm9fdK+x8VFahptgQAECkgAsTcI6sSrN8rA4Ca5ffgY2YLUC/gRCNek6aVBOaf7IZnRO0Pa9rgoXCKuggAEINACAoi9DvTKm3fJ0NvPyLKRDzL83oKbM29F7lLeIGd2PSw9aq37Lh/NW/WoDwQgAAGPAGKvcSNUtq6SwbXL5ZHhhfLsxD7cLhDwCBzU9qIc3b1aeuefJKX+A6ACAQhAIHcEEHuNkAy++CN5eNsu8szEwtwFjQq1loCS+wf71knvwk+1tiKUDgEIQCCAAGIPgDL+6g3yytZxWTbCOnU+NcEEzux6SPboa5eOPXnfzj0CAQjkiwBi98VjcsuzsumNFXLL4AdlUHryFS1qkxsC02RIzu99WGbteoyUph+Um3pREQhAAAKI3XcPbH/xh/KbwXny1Ph+3B0QqEvgkPbn5QO9b0rvwk9DCgIQgEBuCCB2IxSVDQ/I+vXPypKhk3ITICqSbwIX9twjc+ceKOU5H853RakdBCDgDAHEboR62/M/kIe3L2AWvDO3f/MNPbBttRw9bY307/fZ5jMjBwhAAAIJEEDs70JU56q/+eZK+dnwiQlgJQuXCHy8+1cyb+eDpTyHyZYuxZ22QiCvBBD7u5HZvmqx/GZoD3lqYv+8xop65ZTAoW3Py9HTXpGe/RbltIZUCwIQcIkAYheRya3Py4Y1v5Ibhk52Kfa0NUECF/csl9kLTpRSP5MuE8RKVhCAQAwCiF1Ehl9ZIqu3jMpyzlePcQuRRBE4peMh2au/U3r24gQ47ggIQKC1BBD7+FbZ/sK1csP2E2VQprU2GpRuLYFeGZKLpt0j0/b9jEh7v7XtoOIQgID9BJwX++Tbj8q6N5+Qnw2dYH80aUFLCfx+972y666HS2nWUS2tB4VDAAJuE3Be7MOv3iRPbZ6Uh8cPd/tOoPVNE/hg+5Ny6EyR7j0uaDovMoAABCAQl4DzYh967luybOj3ZG1l57gMSQcBj8D88ltyZs9/S88BX4QIBCAAgZYRcFrsk4Mvy+Brt8m1289qWQAouFgEPt2zTPr2OEdKvXsVq2G0BgIQsIaA02KvrL9PXlv/stw2fKw1AaOi+SZwbvcK2X3uXlKee3y+K0rtIACBwhJwWuwTr98mv904Kg+Ov7+wAaZh2RI4pv0Jef/sDmnb7dxsC6Y0CEAAAu8ScFrswy9dL7/ZOkueGD+AGwICiRA4rO05OXr629K99ycTyY9MIAABCEQl4LTYt7/wA3lgcHd5bmLvqNysvn58dERW/Oh7svqR+6vtOPSMj8lRv3+J92/9+/0/corssn+8s8aff+Ae2fLmG9U8rQYWofIHtL0kH+59Tabty6EwEbBxKQQgkCABp8W+7flr5Y7BA2VdZU6CSPOdlZb2rgceIvt9+J3jafXP1P8f+6k/9n6mxI/Yo8dyXnmjnNG7ktPeoqMjBQQgkBABp8U+8Py18vOtvyeD0pMQzvxnM/DG63Lftd+R4z/zeZmx627VCuufH3vp5fL0nbdXe/Mf/vTnvAcA9ftffvP/yLaN6700fbPnykf/9H96eajfPbv8Du/nv7v3TllwyBGy5unHvX/vc/Rx3sNCe2dX/uEkUMNpMiQf7/9vmbHfZxLIjSwgAAEIRCfgtNg3r7pW/nPbh2VCytHJWZpieNtWuftb/6/scsDBNYfJ/UPxWurHffbz3tC8v4c/uHGDJ/3Dz/l4dRTA1aH4slTkkv4HZCZit/QTQrUhYD8B58X+423uLUuq1/tWt3SYd+xK3G88+7TXG1di948CuCp2xe/Svvtk1v702O3/80gLIGAnAafFPrDq3+W6bSfaGbmEar1u1TNyxz//w5Rhc/WPoHfsure//qUXplyP2KcG47K+X8mM/f8ooQiRDQQgAIFoBJwW++ZVP5CfbDtOKg4Nxde6PbS0j/r4pTJnr4VTxG4KXb9zp8ceTNIbiu+7X2buz6z4aH+KuBoCEEiKgNNiH1h1rfxs2wdku3QnxTP3+ZhCNie0mbPl9/7AsVPErnr1q35995RJcIg9ONQ9Mix/0P8bJs/l/pNABSFQXAJOi33LCz+UZdsOkvWVnYobYV/Lak2eU/J+9GfXyylf/Ctp7+zcQez6d919/aKH7/WMd4bi34M8t7xJzuxdKdP3+7Qz9xQNhQAE8kXAabEPvvgjuX/bAnl+Ys98RSXl2gRtUONflqZ65A/88LuiN6559Oc/kafuuKX6bn2fDx4nD/3k370lb+rLP3lOT9DrmT7De1hQDwQufO3b9qoc3/ea9C78lAvNpY0QgEAOCTgt9uHV18lT2/rk4fHDchgaqmQjgaPbn5LD+rZK9z6X2Vh96gwBCBSAgNNiH3/lp/LsFpF7xz5QgFDShDwQOKHjN3LgdJH2PS/OQ3WoAwQg4CABp8VeeeMOeX3TOrll2L217A7e65k0+WPd98tus+ZJedczMimPQiAAAQj4Cbgt9q2rZOuau+S6odO5MyCQCIHLpv2X9O92qpT7908kPzKBAAQgEJWA02JXsAaf+ze5deho2ViZGZUd10NgCoHZ5QE5r+cR6T3gc5CBAAQg0DICzotdncm+YstceWZiYcuCQMHFIHBQ24ty7PT10r33pcVoEK2AAASsJOC82CtvLpeXN74hvxj+kJUBpNL5IXBW90Oy1+xdpTzv5PxUippAAALOEXBe7DK8TkZeuk6+P3SBTErJuRuABidH4Iqen0vX3p8S6Z6XXKbkBAEIQCAiAcQuIkOrr5eV23rkofHDI+Ljcgi8Q+BD7U/Iwf1D0sMwPLcEBCDQYgKIXUQqGx+RDW89ITcOMYTa4vvR2uI/0bNc5u58uJRmH21tG6g4BCBQDAKI/d04Dv/uX+We4ffLi5XdixFZWpEZgYXl1+Sk7t9K9/v+LLMyKQgCEIBALQKI/V0ylQ0PyLo3n5Wfj5zE3QKBSAR+v+se2WXegVKe8+FI6bgYAhCAQBoEELumOrZVBldfL8uHDpZXKvPTYE2eBSSwZ3mtnNyzUnr3uUSkY3oBW0iTIAAB2wggdiNilQ0rZN1bz8rPh0+0LY7Ut0UEfr/7HtllZ3rrLcJPsRCAQAABxD4FyqQMrvq+PDa8mzwxfgA3DATqEjisbZUcNe116d3vj0RYKsndAgEI5IQAYvcFYnLLM7Jh7UNyw/YTchIiqpFXAhdNu1fmzP+QlKYflNcqUi8IQMBBAog9IOgjL/+nvLRtUu4a/aCDtwRNDkPglM6HZZ++knTt9T/CXM41EIAABDIjgNiDUE8MydaXbpRfD+4tL03sllkwKMgOAnuVX5cTel+S/n0+IdLWY0elqSUEIOAMAcReI9STW1fJ5rX3yd1Dh8i6yhxnbggaWp/AvPIGObXnKZk5/yNS4mhWbhcIQCCHBBB7naBU1v1SBja9KDcOnSRj0p7D8FGlLAm0y7h8oucembnTQinP+2iWRVMWBCAAgdAEEHsDVGOv3CDrto/ILUNsPhL6rirohR/reUB2mdYpHXteXNAW0iwIQKAIBBB7iCiOvvRjeX2oJEs52jUErWJecnb3Q7Jbz6R07v3JYjaQVkEAAoUhgNhDhlLJfd3wpNw+9CGpSDlkKi6znUBZKnJO90Myr6ckXUjd9nBSfwg4QQCxRwjz2MvXy+ahIfnVyGHyZmV2hJRcaiOBncsb5aSuJ2VmT4907HWpjU2gzhCAgIMEEHvEoE+8eoOMDL4hvx1bKI+NszFJRHzWXH5k+7Py/o4XpKt3V2nb4yJr6k1FIQABCCD2GPdA5a17ZPTt38qrY3PkzrFjY+RAkjwTOK1jhezRsUE6d3q/lHfmtL88x4q6QQACOxJA7HHvitGNMrT2l7JtaJs8NrpQnp/YI25OpMsJgX3bXpWjOl+Qvp5+6dn1VJEu9i/ISWioBgQgEIEAYo8AK+jSiddvk7GtL8rGiT755egHZdvktCZzJHnWBPpK2+WjnQ/L7LZt0tG/UNp2OzfrKlAeBCAAgcQIIPYkUFZGZfzNe0Q2PSprKrvKvWNHydbJ3iRyJo8UCfSXBuUjHY/K7uU3RGYdJe3zThIpd6ZYIllDAAIQSJ8AYk+Q8eT212Riy3NS2fSYbJycJY+MHiSvVXZJsASySoLA7uV1cnTHMzK7vEnKs46UtukHSGna7klkTR4QgAAEWk4AsacRgolhqQw8JcNvPyWVsa2yemKBvDK+syd51sCnAbx+nmotupL5nu1vycK216XU0SfdOx0q5RmHcIhL9uGgRAhAIGUCiD1lwJWBp0XGtsjwlhelY/h12VqaIZsmZ8rmiW7ZWunx3slvk2nef4cnu1KuTXGz7y6NiHpX3ifbpa80JP3l7TKzbVhmlTZL/+SAjHXvJt3TF4p0TH9H6HxBAAIQKCgBxJ5lYCujMjm8zhP95NgWGR8dkInRd/6/bWKrlCbHZUtpjnRODmVZq1BlTUxMSFtbW6hrs7xotNQj0yc3yGSpXSba+qXUMV3aOqdLe+cM7/+VyEvdu/DuPMugUBYEINBSAoi9pfh9hVfGZHL7qyKdM/NUK68uX/rSl+Qb3/hG7uolo5vfeT/OpLf8xYYaQQACLSGA2FuC3b5CL7zwQlmyZIl9FafGEIAABBwjgNgdC3jc5iL2uORIBwEIQCBbAog9W97WlobYrQ0dFYcABBwjgNgdC3jc5iL2uORIBwEIQCBbAog9W97WlobYrQ0dFYcABBwjgNgdC3jc5iL2uORIBwEIQCBbAog9W97WlobYrQ0dFYcABBwjgNgdC3jc5iL2uORIBwEIQCBbAog9W97WlobYrQ0dFYcABBwjgNgdC3jc5iL2uORIBwEIQCBbAog9W97WlobYrQ0dFYcABBwjgNgdC3jc5iL2uORIBwEIQCBbAog9W97WlobYrQ0dFYcABBwjgNgdC3jc5iL2uORIBwEIQCBbAog9W97WlobYrQ0dFYcABBwjgNgdC3jc5iL2uORIBwEIQCBbAog9W97WlobYrQ0dFYcABBwjgNgdC3jc5iL2uORIBwEIQCBbAog9W97WlobYrQ0dFYcABBwjgNgdC3jc5iL2uORIBwEIQCBbAog9W97WlobYrQ0dFYcABBwjgNgdC3jc5iL2uORIBwEIQCBbAog9W97WlobYrQ0dFYcABBwjgNgdC3jc5iL2uORIBwEIQCBbAog9W97WlobYrQ0dFYcABBwjgNgdC3jc5iL2uORIBwEIQCBbAog9W97WlobYrQ0dFYcABBwjgNgdC3jc5iL2uORIBwEIQCBbAog9W97WlobYrQ0dFYcABBwjgNgdC3jc5iL2uORIBwEIQCBbAog9W97WlobYrQ0dFYcABBwjgNgdC3jc5iL2uORIBwEIQCBbAog9W97WlobYrQ0dFYcABBwjgNgdC3jc5iL2uORIBwEIQCBbAog9W97WlobYrQ0dFYcABBwjgNgdC3jc5iL2uORIBwEIQCBbAog9W97WlobYrQ0dFYcABBwjgNgdC3jc5iL2uORIBwEIQCBbAog9W97WlobYrQ0dFYcABBwjgNgdC3jc5iL2uORIBwEIQCBbAog9W97WlobYrQ0dFYcABBwjgNgdC3jc5iL2uORIBwEIQCBbAog9W97WlobYrQ0dFYcABBwjgNgdC3jc5iL2uORIBwEIQCBbAog9W97WlobYrQ0dFYcABBwjgNgdC3jc5iL2uORIBwEIQCBbAog9W97WlobYrQ0dFYcABBwjgNgdC3jc5iL2uORIBwEIQCBbAog9W97WlobYrQ0dFYcABBwjgNgdC3jc5iL2uORIBwEIQCBbAog9W97WlobYrQ0dFYcABBwjgNgdC3jc5iL2uORIBwEIQCBbAog9W97WlobYrQ0dFYcABBwjgNgdC3jc5iL2uORIBwEIQCBbAog9W97WlobYrQ0dFYcABBwjgNgdC3jc5iL2uORIBwEIQCBbAog9W97WlobYrQ0dFYcABBwjgNgdC3jc5iL2uORIBwEIQCBbAog9W97WlobYrQ0dFYcABBwjgNgdC3jc5iL2uORIBwEIQCBbAog9W97WlobYrQ0dFYcABBwjgNgdC3jc5iL2uORIBwEIQCBbAog9W97WlobYrQ0dFYcABBwjgNgdC3iY5t533307XPZf//Vfcvrpp0/5+cTEhJx44olhsuQaCEAAAhDIiABizwi0TcVs2LBB/uRP/qRhlf/t3/5N5syZ0/A6LoAABCAAgewIIPbsWFtV0rXXXitLly6tWeezzz5bPvOZz1jVJioLAQhAwAUCiN2FKMdoY6NeO731GFBJAgEIQCADAog9A8i2FlGr105v3daIUm8IQMAFAojdhSjHbGOtXju99ZhASQYBCEAgAwKIXUQmJyczQG1nEarX/otf/KJa+bPOOot36yFCWSqVQlzFJRCAAASSJ+Cs2LXMTakj+B1vMNVr/8IXvlD9xbe//W1mwtf5HJpC1/+P5JP/w0WOEIBAbQJOil0J3PyuVCr02ut8Sq677jpZtmyZnHnmmXLZZZfxeWpAQIm8XC6L+q/5DTgIQAACWRBwTuxa6ErmaoMV/Y3ca99uGzdulC9/+cty9dVXy+zZs7O4L60tQ0u9ra1N9LcpeWsbRsUhAAFrCDgpdiXx8fFx+fWrQ2K+XWcovvZ9OzIyIl1dXdbc2K2qqB52/73ZFens7JSOjg5pb2+v9uBbVS/KhQAE3CHglNh1b1310sfGxmT5qyPuRJqWZkrgiP7t0tPTI93d3Z7cVe9dD8tnWhEKgwAEnCPgpNhVb131QO99fdy5gNPgbAgc2PG29Pb2et9qpEP12hF7NuwpBQKuE3BO7HoYfnh4WO57o+J6/Gl/SgQWTq6T6dOnS19fn9drZzg+JdBkCwEI7EDASbGrYXgl9vvXsX6dz0Q6BPYaf90Tu/rWw/F6El06JZIrBCAAgXcIOCv2oaEheeBNbgMIpENgz7E1VbGrd+3qPTtiT4c1uUIAAlMJIHbuCAikQGCP0ddkxowZntwRewqAyRICEKhJALFzc0AgBQKIPQWoZAkBCIQigNhDYeIiCEQjgNij8eJqCEAgOQKIPTmW5ASBKgHEzs0AAQi0igBibxV5yi00AcRe6PDSOAjkmgBiz3V4qJytBBC7rZGj3hCwnwBitz+GtCCHBBB7DoNClSDgCAHE7kigaWa2BBB7trwpDQIQeI8AYudugEAKBBB7ClDJEgIQCEUAsYfCxEUQiEYAsUfjxdUQgEByBBB7cizJCQJVAoidmwECEGgVAcTeKvKUW2gCiL3Q4aVxEMg1AcSe6/BQOVsJIHZbI0e9IWA/AcRufwxpQQ4JIPYcBoUqQcARAojdkUDTzGwJIPZseVMaBCDwHgHEzt0AgRQIIPYUoJIlBCAQigBiD4WJiyAQjQBij8aLqyEAgeQIIPbkWJITBKoEEDs3AwQg0CoCiL1V5Cm30AQQe6HDS+MgkGsCiD2D8Dx+7x1yyzVX71DSzDnz5NIr/1Hmzt8jlVrcdcP3vXxPvejyHfJXddq4bk31d/WuTbJyqtzVKx+X8y7/c+no7Eoy6yl5rV/7qty8+J/k/EV/kRrfepVH7KmFlowhAIEGBBB7BreIX6K6SPXzR5cvlUu+8jWZ1j8j8ZrkUeyJN7JGhog9K9KUAwEI5I0AYs8gIrXEvn3rgPzkn78qp158hex14GFeTczevb9Hr2R1/VV/LZs3vOldW+/3Cxa+T2bNmy8zZs/docdulnHosSd7ved7b7pOBjaul01vrpU1L/7Oy/8zf3N1tV5joyNy6/f/RZ5asdz7nU4X1OvW7dL5HHfuRdU6+Hvs6uHj/ttu8PI85RN/KM89uqLKQ/2uq6fX+1lQnerxQOwZ3NgUAQEI5JIAYs8gLGHF7pfey88+KXf99BqvRz+4dcCT+vmLrvRkq0Wrqq/ErGRv/l6lvfbrXxZTqmZTg4bin37wV9VXA+ZoQkdXtyf1fQ4+Qo444Qwvm1qjAbpe+lr/v802Pv3gPVNGLLTk9QOF+netOoXhwVB8Bjc3RUAAArkjgNgzCEmYoXhVjZsWXyWnXbJoyjthJbfZuyyoCtUvZ/2+WknS/+66maF4s8c7OLBZHr1n6ZT34qpXHlRfv8j9eLXYz/zUF2TZj74tR510dnVUQPfA9cOLv/6NeuHmQ4N60EHsGdzcFAEBCOSOAGLPICS1Js+p4XL9ft0/rGxW62NXfLkqdv8wtzmUrtKYE+VqPVCo6xpNnjMluub5ZyJN/tOjBUFD9lq+p158udz+H/865UHG/2oijNhr8UDsGdzYFAEBCOSSAGLPICx+iWqJn3DBJ6vCbtQbNQWmRW/2UNU78jTFHmcmu/mwol8JJCX23v4Z3vwE9e49iAdiz+DGpggIQCCXBBB7BmEJ6jnrXq1+nxw0kc6smrrePxzuf1+d5lC8ftcfZ/a+OVfgucce9F4ZNDsUH/R6gKH4DG5mioAABHJPALFnEKJaQ+L1JocpgZqyV9U05aofDPRQ/NjI8JQZ9nEmz5k9fnMEQc2+V5PnzBn2pqxN2Qe9YzeH1KNOnqtVJyX2ejzosWdwY1MEBCCQSwKIPYOw1BK7lqBaYqbftZvLv1TVzCVn5u+U0A879hRZeu03qzPZzaFv9fvuab3S1TMtcIMafW3fjFle2St+sWTKUL7/1YD/XbY5P8CP0D9fwFwa12i526urnq6+d2/0jr0eD1UnJs9lcHNTBAQgkDsCiD13IXG3QrVm2ttIhJ3nbIwadYZAMQgg9mLE0bpWBA3ZZ7XdbBawEHsWlCkDAhAIIoDYuS9aRqDekH3LKpVQwYg9IZBkAwEIRCaA2CMjIwEEGhNA7I0ZcQUEIJAOAcSeDldydZwAYnf8BqD5EGghAcTeQvgUXVwCiL24saVlEMg7AcQeMkL1tmcNmUXsy/REM72veqNd6moV5G+D/8Q2lc7cvlbno8p75M6b5aQ/+Iy3v7v68p+n7l/X7s+71mE0saEEJNRr94PaoC83t7vVPwu6vhEbNYN/2XXfkTMv+3zgkbuIPcnIkhcEIBCFAGIPSct2sWs5q0Nm1FGrQdva6rXqex10+A57zitMhxxzUvXoVr8M/WI316A3OhgmZAjqXqbLUJvovPzME4Fn3Ks6+X8X1OawbFSbX3jykcB9AhB7ElElDwhAIA4BxG5Q88/SNvcgv+Waq70rzUNX+mfOlgeX/cz7+aVX/qOY+5ern/nPIV/70ioZ3j5YPdPclKO/h6h6gk+uWC7n/OGXZMXSJVPSLNjvIG/zlfl77ye/ueu2KfUKOh9dXaCktu9hR0858tU8htXsnZsbu6h63fmTxXL0aed757/rHejM41RVWv8Rs/7NYYK2xDVvWLMn7T9nXtXdz3ru/D2m3O8qdqqep1/yObl58VVTzrj318+/La5Oe8GiKyXoiNp6bBQP84Q6fS1ij/PniDQQgEASBBD7uxT9e7X7/x10GprZ+/NfH3QOuXo40DvJKZEpAakHAiUpJa+Bjeu9IW71pYTx2qqV3u+1UM2heHX2+iHHnOj1FnXZR518duDxrqa4lNSiDOWbPX1dL1UP1VPV9VUPE6bY31rzypTtXlW6emX6WQSxqdUL1x8CMz5Bx9XWO/7W/CBFYaPS1RpCVmJFAAAgAElEQVTJQexJ/HkiDwhAIA4BxF5D7H6YjY45DfoDbwpVH36i302bDwI7L9hzh7PNTbkFid3fI6539rq/t1xrn/egG8gcbjbf9as6q9PV9MOEX+zNnt9utqde21Sd/Q9Vfjn75yjU+6BEYVNvJACxx/lzRBoIQCAJAojdoGiem+6f7NVI7P493nW2ek/1emLvnTHTG0ZWQ8F6mDjoEJZ6k+fqyc9f9yjyChrC1/UwHz7MQ1lUjz2s2GudateoB27e/P4HF/9oSZDY/Xvfq/zUaIr6inKSXa0ePmJP4s8TeUAAAnEIIPYAaub7XvM9+8Z1a6oTpfwibdSr9G+XagotbbE3Okyl1o3jn/kdJEj9CkEdSKPOhFcHykQZim9W7EGz1/0PVephqd5QvD8WUQ6PqbW/PWKP8+eINBCAQBIEEHsdiv4jRuuJvdE+5/XEnvZQfK1lbkGT5/xHxZqzvuv1fLt7+2V4cKsn9sGtAzucrFZr8lytGfNhh+Jr9Zj1RMjzF13pTRisN0phtnm3hQd48xsasVF5qi967En8GSIPCEAgSQKI/V2aYSa/1RN70AQ2/4PB6pWPV9d/+8uLOnmumXfsWkhqAt4JF3yyOuFO12nWvPlePZ9+8B6PzhEnnOH9t9a7aj3CYR7lGmW5W5jJc6p8NVHQ/1XvgSpoVMU/Cc/s8euJjfWWu2k2evVBrQcGeuxJ/pkiLwhAIAoBxG7Q8m9eYr5nb3R+uSnLzRve9HKtdw55rQeJp1Ys99Kq5W4vPPXf1ffu+v2/qtPhx5+2Q4+43qsA/6x43eSg98z61YO5zE0vLas3Cc2/RjzqBjWNlrsFib3RagD/A4PKI2iDmqDNc+qxMT9gzIqP8ueGayEAgSwIIPYsKMcoo5aMY2TlJQm73Ctu/i6mC3r40Rzosbt4R9BmCOSDAGLPQRyCJpA1mowXtdr+neeipuf6HQmw8xx3BQQgkEcCiD0nUan3GiCpKrZyW9yk2pCXfNgrPi+RoB4QgICfAGLnnoBACgQYik8BKllCAAKhCCD2UJi4CALRCCD2aLy4GgIQSI4AYk+OJTlBoEoAsXMzQAACrSKA2FtFnnILTQCxFzq8NA4CuSaA2HMdHipnKwHEbmvkqDcE7CeA2O2PIS3IIQHEnsOgUCUIOEIAsTsSaJqZLQHEni1vSoMABN4jgNi5GyCQAgHEngJUsoQABEIRQOyhMHERBKIRQOzReHE1BCCQHAHEnhxLcoJAlQBi52aAAARaRQCxt4o85RaaAGIvdHhpHARyTQCx5zo8VM5WAojd1shRbwjYTwCx2x9DWpBDAog9h0GhShBwhABidyTQNDNbAog9W96UBgEIvEcAsXM3QCAFAog9BahkCQEIhCKA2ENh4iIIRCOA2KPx4moIQCA5Aog9OZbkBIEqAcTOzQABCLSKAGJvFXnKLTQBxF7o8NI4COSaAGLPdXionK0EELutkaPeELCfgLNiHx4elvvXTdofQVqQSwJ7jb8u06dP9767u7ulo6NDyuWylEqlXNaXSkEAAsUh4KTYx8fHRYn9vjcqxYkkLckVgX0qb3hS7+/v98Te3t6O2HMVISoDgeIScE7sk5OTosQ+MjIi974+LuV3O1Dq53xBIAkCk1KS97VvlL6+Punt7ZWuri5P7Kq3To89CcLkAQEI1CPgpNgnJiZkdHRUto+LjI2Py9jYmIxPTMhkZVIqCD7wfnnqqafk0EMP5dNUh0BZibtckva2NmkbH5aenh6vt97Z2SltbW2InbsHAhDIhIBTYldEVc+8Uql4vXYld/2t/q1+Ts89+L77/Oc/L9/5zncyuSltLUT1xtV7dNU7VzLX3wzD2xpR6g0BOwk4KXZT7qr3rr+Reu2b+LOf/az84Ac/sPMuz7DWSu6qd66/TakzDJ9hICgKAg4TcE7suteu5W7+F7HX/iRceumlcv311zv8UQnXdP0eXc+A1/9F6uH4cRUEINA8ASfFruVuSr55lMXO4aKLLpIbbrih2I1MsHXmRDmkniBYsoIABBoScFbsmgy99Ib3iHfBJz7xCbnxxhvDXcxVHgGEzo0AAQi0goDzYm8FdBvLvPDCC2XJkiU2Vp06QwACEHCKAGJ3KtzxG4vY47MjJQQgAIEsCSD2LGlbXBZitzh4VB0CEHCKAGJ3KtzxG4vY47MjJQQgAIEsCSD2LGlbXBZitzh4VB0CEHCKAGJ3KtzxG4vY47MjJQQgAIEsCSD2LGlbXBZitzh4VB0CEHCKAGJ3KtzxG4vY47MjJQQgAIEsCSD2LGlbXBZitzh4VB0CEHCKAGJ3KtzxG4vY47MjJQQgAIEsCSD2LGlbXBZitzh4VB0CEHCKAGJ3KtzxG4vY47MjJQQgAIEsCSD2LGlbXBZitzh4VB0CEHCKAGJ3KtzxG4vY47MjJQQgAIEsCSD2LGlbXBZitzh4VB0CEHCKAGJ3KtzxG4vY47MjJQQgAIEsCSD2LGlbXBZitzh4VB0CEHCKAGJ3KtzxG4vY47MjJQQgAIEsCSD2LGlbXBZitzh4VB0CEHCKAGJ3KtzxG4vY47MjJQQgAIEsCSD2LGlbXBZitzh4VB0CEHCKAGJ3KtzxG4vY47MjJQQgAIEsCSD2LGlbXBZitzh4VB0CEHCKAGJ3KtzxG4vY47MjJQQgAIEsCSD2LGlbXBZitzh4VB0CEHCKAGJ3KtzxG4vY47MjJQQgAIEsCSD2LGlbXBZitzh4VB0CEHCKAGJ3KtzxG4vY47MjJQQgAIEsCSD2LGlbXBZitzh4VB0CEHCKAGJ3KtzxG4vY47MjJQQgAIEsCSD2LGlbXBZitzh4VB0CEHCKAGJ3KtzxG4vY47MjJQQgAIEsCSD2LGlbXBZitzh4VB0CEHCKAGJ3KtzxG4vY47MjJQQgAIEsCSD2LGlbXBZitzh4VB0CEHCKAGJ3KtzxG4vY47MjJQQgAIEsCSD2LGlbXBZitzh4VB0CEHCKAGJ3KtzxG4vY47MjJQQgAIEsCSD2LGlbXBZitzh4VB0CEHCKAGJ3KtzxG4vY47MjJQQgAIEsCSD2LGlbXBZitzh4VB0CEHCKAGJ3KtzxG4vY47MjJQQgAIEsCSD2LGlbXBZitzh4VB0CEHCKAGJ3KtzxG4vY47MjJQQgAIEsCSD2LGlbXBZitzh4VB0CEHCKAGJ3KtzxG4vY47MjJQQgAIEsCSD2LGlbXBZitzh4VB0CEHCKAGJ3KtzxG4vY47MjJQQgAIEsCSD2LGlbXBZitzh4VB0CEHCKAGJ3KtzxG4vY47MjJQQgAIEsCSD2LGlbXBZitzh4VB0CEHCKAGJ3KtzxG4vY47MjJQQgAIEsCSD2LGlbXBZitzh4VB0CEHCKAGJ3KtzxG4vY47MjJQQgAIEsCSD2LGlbXBZitzh4VB0CEHCKAGJ3KtzxG4vY47MjJQQgAIEsCSD2LGlbXBZitzh4VB0CEHCKAGJ3KtzxG4vY47MjJQQgAIEsCSD2LGlbXBZitzh4VB0CEHCKAGJ3KtzhGnvPPffscOHy5cvl5JNPnvLzSqUip5xySrhMuQoCEIAABDIhgNgzwWxXIW+//bYsWrSoYaUXL14sO+20U8PruAACEIAABLIjgNizY21VST/84Q/l9ttvr1nnc845Rz796U9b1SYqCwEIQMAFAojdhSjHaGOjXju99RhQSQIBCEAgAwKIPQPIthZRq9dOb93WiFJvCEDABQKI3YUox2xjrV47vfWYQEkGAQhAIAMCiD0DyDYX4e+101u3OZrUHQIQcIEAYnchyk20cePGjfK5z32umsN3v/vd6kz4UqnURM4khQAEIACBNAgg9jSoFiDPyclJrxXqv6rXvnTpUjnrrLPkU5/6lCih6291DYIvQMBpAgQgUBgCiL0woUymIUrk5rfahEb12r/whS/It771La+3rkReLpe9b1PyCD6ZGJALBCAAgWYIIPZm6BUorV/oExMToqQ+Pj4ur28vybOvb5D3zZ8tO3eMSltbm/fd3t7uyV39P4Iv0M1AUyAAAasJIHarw9d85YOErqSuhL52e0le3jIualR+YlKkrSSi3qov6C/L3LZh6ejo8OSuvrXsEXzzMSEHCEAAAs0QQOzN0LM4bRSh+5upBb9bX8kTfGdnJ4K3+F6g6hCAQLEIIPZixbNhaxoLfcJ7x6566I2+EHwjQvweAhCAQPYEEHv2zFtSYpJCpwffkhBSKAQgAIFQBBB7KEz2XpSm0BG8vfcFNYcABIpLALEXNLaNhP7SwLjX8jBD7lERMUQflRjXQwACEEiOAGJPjmUucmql0Gv34NUs+iEm2eXiDqESEIBA0Qkg9oJEOE9CR/AFualoBgQgYCUBxG5l2N6rdH2hl+WlgbHUhtyjontviJ4efFR2XB+fgN4eWefg/3f8nEnpKgH/Lpt523UTsVt6ZzYS+ssDY6JWrKXxDr1ZZAi+WYKkD0vA/zlR6RB7WHpcV4uAFnleN+RC7JbduzYLnSF6y242y6urPitqW2TzW39+LG8a1W8xAS10fWaGeXZGi6vmFY/Y8xCFEHUoktARfIiAc0lTBPTnRW2PvEaNXinJv3vAEb32ptA6n9jsrc/rmZyy66Z56mUrQSH2VtIPUXaRhY7gQ9wAXBKLgLd74rtnHtz18pC0eS+m3vkKsalirDJJ5A4BdWbGhJTk6J3GpKury/vWZ2bk4X07Ys/pveiS0HcQfFkNJYns1scku5zenrmultlbHx0dlXteG811famcvQQO7dki06ZN877VmRnmSZetbBVibyX9gLJdFjqCz9nNaGl19GdobGxMRkZG5NdrJyxtCdXOO4H9y+ulv79fent7vV67OvEyD8PxiD0nd05doQ+X5eVN+Z3lnjbCNnrwaSMuVP560pw6enhoaEjuX8fge6ECnKPG7FN5Q6ZPny59fX3S09PjDceriXStHo5H7C2+SeoJ/fXtJXllYDy3y9ayRofgsyZuZ3la7KrHrsT+wJt2toNa55/AnmNrZMaMGV6vXYld9dgRe/7jlloNQwm9JDJRSa0K1mbsCV5Edusty5zy9urEFT15xXzPlYdhMWtBW1pxxG5p4Cys9h6jr3liV712xG5hAJOqMkJPiqQIgk+OZZFyQuxFima+24LY8x2f1GuH0NNDXC5NSrlU8mbRzymNS1dXacraUnrw6bHPY86IPY9RKWadEHsx49qwVY0OZ3lZvUNnyL0hxzAXIPgwlIp/DWIvfozz0kLEnpdIZFQPhJ4R6IBitODn95ZkbveEdIp4k1p4B9+6mGRZMmLPkrbbZSF2R+KP0PMTaASfn1hkWRPEniVtt8tC7AWPf0Ohb3l32Rqz3DO/ExB85shbWiBibyl+pwpH7AUNN0K3J7AI3p5YNVNTxN4MPdJGIYDYo9Cy4FqEbkGQalTRFPxu3e9sN8o7eHvj6a85Yi9OLPPeEsSe9wiFrF8YoavjIStqqjtfuSaA4HMdntiVQ+yx0ZEwIgHEHhFY3i6vJXS1beUbQ2V5ecu4d94zQs9b5BrXp7pMrrck8+nBNwaW8ysQe84DVKDqIXZLg4nQLQ1cjGoj+BjQcpgEsecwKAWtEmK3LLC1hT4pbwxVYvXQ77rh+3L/bTdUSRx67Mly3uV/Lh2dXd7P1O/V16kXXZ4qrcfvvUNWr3x8StlmgevXvirXX/XXsnnDe6dnfOZvrpa9DjzMu2z71gG5afFVctoli2Tu/D1SrWtQ5i8/+6Q8es/Sav2T5tZWmvROZ9qNHnzmsU2iQMSeBEXyCEMAsYehlINr0hB6LWkrIb38zBNyyVe+JtP6Z2TW+npiV1K/efE/yfmL/qIqbS36Ey74pBxxwhmFF7sORFtJpFRSh80wRJ/ZzZlAQYg9AYhkEYoAYg+FqXUXpSV03cP9yT9/VU69+Ipqrzfo5/6ep9nDP+UTfyjPPbqimof6XVdPr/ezNS/+zgNn9qr9ve6Zc+bJpVf+oyfremKv9Tv981MvvlyWfON/TSmzd8ZMeeTOm706/Oau2+S4cy/yRh1Umluuudr7uVm+7vHve+jvybLrvuP9fsHC9015wFG98mu//mXvd2pko3tar3T1TJN9Dzu6+nOdZsUvlsjAxvWy6c21gSyavauU4L069iH4ZllmkR6xZ0GZMhQBxJ7T+6Cm0Ccn5Y2t8Ybc/U0dGx2RW7//L96PzaF3/3Wm2JUUH12+tCo7LXktb/Xvpx/81RRZ6+sHtw54Q+nnL7rSe5Dwl//0g/fUHIrXQjUfEvz19A/F+3v06nr/A4LK966fXuO1R32pB51Z8+Z7PNSX4jNj9lzvgUDnp+uv66QfGIKG4muxSHIkBMHn9EPsqxZityNORaglYs9ZFLMQutlkJUMlM927Vr/zy1OL/YQLLvNEd9RJZ1d7+H7Z+Xv3QUPoZvmmaOuJXUtZ97R1j9l8IAkSuzl8X+sdvKrz7F0WyAFHHuOxMEcw/PXbuG5Nda6BfjDR4m/0jr0Ri2ZvRQTfLMF00yP2dPmS+3sEEHtO7oashR7UbHOY3ByC1rI+9qwLd5icph8MtAzDiN3/MKEn6zUSu1ln83XAx674cuA7dr9Igybf6TxVHo3Efu9N13kPAOp9vv4y29tqses6IficfKjpseczEA7UCrG3OMh5ELofge6J7nPwEZ7EkhJ7b/+M6uiAlnGUHntQqPxD6eas+CCx+yfgBY1e1Oqx2yJ2BN/iD3WN4umx5zMuRawVYm9RVPMgdFOK/ne+Zk80qaH4wYHNU5aD6eF1vcStVo/d/6BhhsyUt3pwqCd2/+iCP/RBv7dpKL7WrUwPvkUf8gL02INe1elm6bkladCt99pK12mvgw7fYQluoyWzYevqH30Lmy4v1yH2jCORB6HrJteaPOf/UEWdPKfy12vezbyU2PVENfUgoSefhRmKrzV5zqxbo3fs+kHCnPxnynznBXvWfceu1s+bk//CTJ6rxaIV6+zbyyVR9x+z6DP+0L9bnI099lrzUvTn5qiTz57yaiopsmHEruYF+ecDIfZ3IoDYk7oTG+TTUOgD6vjUSZlowV7u/g1q/Eu8Gi13e3XV09VNYRq9YzfLUkI/7NhTZOm13/Rm0a95/pnIG9ToIX2NX+evfr5gv4N2WPuurvO3V/9xaNRjVxv2BC13m7/3/tV3/Gry3baBTV57nrjvTq9aQQ85rRC7ZvSe4Msyv3vc+zGHzaT/h6BIYvePtqnPhr937+/R+z939X7/gVPPlbUvPT9l3wodIf2woZaqvvHS81OWo/rFXqtOQb1+9dm+efFVctIffFpu+u5VXnH+v4Xp3yXJlIDYk+FYM5daQlc/f00tW2uh0JNoeqt3e0uiDc3koWfUmxPqmskvy7QIPkva4o2WVCoVUec4DA0NyQPvbaCYbUUilFbv821KdGxkeMpoV9A8HbWng17F4h+BU58j/XtVPbX65rVVK6vLZs0q6zqd9PFPy4PLflZdjup/2GhUJ/9rPHNFDEPxEW6SCJeWJtWnwOKvIgo96F13UkNfNoTa39a0l69lxQTBZ0O6SGL3D8Wrz4a5FFQRVZ+PO3+yWC5YdOUOO1g2egXWaChez6VR5Zivx+rNiQmqk36g0BtN6dE1xJ7OZ8JasYcTusiEpY8t/iVj/n3l07kd8pGrfrB5asVyr0LmrnX5qGFztUDwzfFrlNpWsfv3udDtNF+D+YfZ9TX+oWxz10d1jXoNpnaI9K9WqTdS4P+duWnWc489WH2dp1axmGdgBNVJP2Co35lbaCP2RndzvN9bJ/aiCz1eGEllIwEEn07UbBW7/2CloLMkGh14pIWuRa8I66HvZsVubhSl9pnQq2yU2NVXvcOrtNj1vBg99wWxp/MZsEbsYYSuTuwYr1jaRU8nvuRqAYH2snovrPaiZ5JdEuEqitiDVtPUeyWnrzd3rExqKF6LWI8kzpm/h/T09Xvv8sNseKUfSFR8/XMAzJMak4h/lnkweS4mbYQeE1zAfu1RcirKe+0obW71tQg+WgSWL18uJ5988g6JiiJ21TAt0kOOOdHrEQctf9OyP/NTX5BlP/q26A2vzFdaekWK+WCg8g8zec5/PLMeFdCvB/XkOXNJnlnO6y8+t8M5EfpaeuzR7vmwV+e2x67n9KnZrer/JyYmvG9zljs99PphbmbCHWIP+xFK/rqq4KeVZP60Ca+AoGVy5XLZ+506O97FrxtvvFEeeOABOffcc+XUU0+tIiiS2FWj9Mx2/a693vwb/+8u/crX5ckVd0+Z0W6+pz/zss/LkyuW113u5hd70EhCrTrpPSn0kc+6PWq5m1qqqnfJ9A/R23I/02OPECndS1dSV99K6Oq/etkaQg8HU4n9md/c5138/G8f8f4btNFE0NGqfrH7J7TptbFBa9KD1tirY13VHwi1DpevcARqCV5Jvq2tTZTY1bcSu4tyV2JfsmSJB3P+/PlVwdso9nB3BFfljQBiDxkRU+pa6K9sqcjLm0dV14R36CE5qsv0kJn/SV8fh1rvaFV19KueQatmpZvHqvpPWzPXmGvR6yNZlchVOerLxjXoEXCndmlbSc0bKcmC3pLM75nwZK7kbgreRbmbYtfwleDPPvtsOeWUU6xax57azUPGqRJA7CHx6qdt1UN/adOYrN404vVGxpgUF5Lge5cFDcXXO2hGpdSSNneT829Rq67zb2GrJ8Coobdf33y9V4mPnH+pt1RNrbE9+rTzpZW7wEWGl8MEWvC795Vl9z7xBN/Z2Snt7e3VnnsOq51alYLErgvbdddd5fTTT5djjz3Wig1qUoNExqkSQOwh8Oreuuqp3/faoAyPTQo+DwGuxiVBm1lo2R979oVyw//3/4gSsf/Lv01s0Ba05hpXlV5vkKHWt6ovtYnGvocd7a2dZRg+fgyDUqo362PDg3LzN/62OiTvYo99l112kZUrVwbC1R2EnXfeWc75s/+TbADIDQLvEkDsIW4FLfbx8XFZv31cXh0Yk01DE1IRNycHhUBW95JGYr/9P74ROGnG3yNvJHY9VK+W2bzw5COe0NWX/v9Nb61lGL7ZYL6bviSTMr1TZPrkkPRMDEp3d3d1Yp1rcr/99ttFfQd9qb8lJ510kjdr/sXSLgnRJxsITCWA2EPcEWaPfXR0VIaHh2Vwsk1e3TIpA6Pq6BYEHwJj9ZJGQ/Hmns3+fOudFucXvxpiV2Wpma1vrXlZ1Exb9Y5e9dS7eqbJ4cefxjB8lMAFXKuE3ttekV26JqQ8NCDTpk2Tnp4eT+xqOF5NpnNN7LWG4tUM+bPOOkvmzp1rzV7xTd4eJG8RAcQeArw5cU712pXcR0ZGvA/naMc0Wbu9JFvHysIWNCFgGpPn9Ex4faqSWmaiZVzraFVzl6pGk+dUbfxHw+q1reYkunC15iqTQGlyUnrbKjK3Y1Qmtm7wRK6+ldS7urp2eMfu0ux4v9g/+tGPyjnnnCPq/XreDoFpdPxqo9/zqRAJ2oCn1VwQe8gImL12JXd1QpMWvJL8eFefrBtuQ/AheKpe9NqXVsnw9kHR+677l7vVOlo17HI3XY2gP0yNtr8M0QRnL1FCn1aekLmdozI+sN6TuPmteunm2nbXeuvqxtBi10JXM+LVVx6Xu+nPR3dvvxx37sWy14GHVe9tcymp/3hkZz8AAQ1H7OHvhlxuUGPKXT15a8ErySu5K9Ej+PBB5kp7CNQSuhK5Erte5qZnwrs4BK+jqcR+3HHHeWvYza88i13t1jY6MizHn/c/qlVWD9FqJcnw9m1y0AeOr85H0aNg+kLzody/r4S6xnwoMA+BMQ9RCtp3wnxlpybTqldo6us3d90mer+KevmpPe7ff/zp8sv//J43GVe18dSL/kiWfPN/y5oXf7fDIU712qU6A109vfLcoyu8tOpLtXu3hQd4S251ByUvD0D02CP+bTW3ktWb1CjB6yF6JXdP8J19sm6EHnxEvFyeMwL1hK6krpe1KaHrzWl0L92l4fcwYcuz2E+44DJ55bkn5dizLqwesaqkOTo85IlMbwer5HfXT6+pnoRmjqD5X40pJiqPe2/6sbebm395qpmXutY/t8YvdnU8q7lTXL39LnR++pWbfgVn7iRnjtzVa5d6PaiuffrBX1XPhzdPlOvo6vbkbu6FH+Z+SPMaxB6Drt5W1r9pTS3BvzHSJtt4Bx+DNElaRaAZoas6I/UdI5dnsZ968RWiVonM2nm+Nxyvet5qqajavOnBZT/zxH7IMScFCixolYtufaPJrvq6MD1282jXWse66v0uDjjymB0eFPyv4PR+8Hove7+YzXYF7Vrp3ygLsTf+a5XLoXh/taMIfqKrX9YOlxF849hzRQsJIPT04Odd7Gpi6u/++wFvOF4JWQ19n/TxT8uy677jiV3LUg9Fm6T00Lj+mTlHRg+56x590LyaqGL37wFv1kUNh9cSuzrWVe80qcV+6sWXy5Jv/K/qEHtQuxB7Mp8LK8Sum4rgkwk6ubSOAEJPn33exa7eF+vdGNUeEepL99JNsavevTnJziSnha5PWFPvts2etl/8Wvr60BUzb/9QvJlPo8Ogap0VUU/sjdql6q7Pdg96BUGPvfFnyCqxhxW8Ocmu2oMfL3tnXvMFgVYQQOjZUc+72JWs9Xv1DW+85m23rHvZ5lC8ft/uJxc0PF5PwHqiXa2HhnpiDxK3WZ8oYvcfKxt0R9BjT+ZzYqXYXRS8f6lHow9cMrfHO7k0W1a9ZW+1/jDcf9sNXtnmjN4k25RVXu8IfVzmdI7JhLFsTU+IqzcpTtWRd+jRI2WD2PUQ9+77HyznXf7nXiPVxDBz8pw+2lRNKqsnZ/0Z0hPW/JPn6k288x/aFNTzNyewTeufMeXvwc4L9gx8xx7UY1ftVGez12qXGrpH7NHv96AUVovdJcG7Inb1wR7YuN77Y6dOhvNvqpPMbZ9+Lu9sLDMhsztGZGJgQ3UNOkJPn70NYjdFrYTm/zsgB+IAACAASURBVLeiZC4xU/82l3iZS8bUw686sVHNoj/q5LO9d9u19qdQ+ZjvzRcsfJ8cc9aF8rtHH/A+c42G9HX09NK7KD12/Zmu1656Ytebaqljpv1zDdK/q4JLYFZ8BuQbvYO3dYjev2bVnLSy10GHi+7dqg/pJV/5mreMRk/KUdjDrEf1/yEJWvtaqyyzV68n/Jh/hPwfVvODrd4Rbnpzraj3bkFP/0F/8DK4lWIXgdBjo0ssYR7FnljjyChXBBB7huGIKni1TG7rWCnX7+Br9dj1+lE9lDdj9lxv4ol+Kg+7HvWtNa9MWTcbtPa1Vln+Xef8/zbF7h/W0z0L/454+nbJ425TNYa+6KFn+BmvVxRiz0kgHKgGYm9BkIsk+DBD8Y0mwagdok67ZNGUA1n0elS1rtbcEMMMV6MlMk8/eI+sXvl4dfhcpTUfDFb8YomXndqcw3yPaPb0g2bK6jar6/QwXgtuo7pFliZFetvGGXLPUWAQe46CUfCqIPYWBrgIgm9W7I3Wo+rlNnHWvt5703VedPUSFfX/qjx9RrsWu9pty7/rVa0eed6ljtBb+IFuUDRiz29silYzxJ6DiNos+CTEHrTONSgseng87NrXNMTu33oyB7ePVwWEnpdI1K4HYs9/jIpSQ8Seo0hGFrw6TW68te/gmxV71CVrUda+pjEUH3SWfCtvIYTeSvrRykbs0XhxdXwCiD0+u9RSRhZ8CyfZNSt2BbHeelT1+1qHTjTarUof/KCX2tSbPOfviTeaPJda8ENmjNBDgsrRZYg9R8EoeFUQe44DbIvg9TIxtYYz6H11vclzGn+99a21ftdo8pxab66vibrc7ZRP/KF3RKN/8lyre+wIPccfWN6x2xucgtUcsVsQUFsEbwFKa6uI0K0NXbXi9Njtj6EtLUDstkRKRKILvixb1XGx7EVvUZSnVrUkIr1llq1ZG0Cj4oi9CFG0ow2I3Y44TallZMEPl2Urh81YFWmEblW4QlUWsYfCxEUJEEDsCUBsVRYIvlXk0ysXoafHttU5I/ZWR8Cd8hF7AWKN4O0PohK6d9oah7PYH8waLUDshQ1t7hqG2HMXkvgVQvDx2bUqZVXobSMysZXT1loVhyzKRexZUKYMRQCxF/A+QPD5DypCz3+Mkq4hYk+aKPnVIoDYC3xvIPj8BReh5y8mWdUIsWdFmnIQuwP3AIJvfZC10Od2jMr4wHrp6uryvjs7O6vf7e3tor7b2tqkXC5LqVTyvtWX/m/rW0IN4hJA7HHJkS4qAcQelZjF1yP47IPnCb00LnM7EXr29PNVImLPVzyKXBvEXuTo1mgbgk8/6PWErnrqHR0dXu+cHnr6schLCYg9L5Eofj0Qe/FjXLOFCD754L+zDn3CW7bmH3JH6MnztilHxG5TtOyuK2K3O36J1B7BN48RoTfPsOg5IPaiRzg/7UPs+YlFy2uC4KOHAKFHZ+ZqCsTuauSzbzdiz5557ktE8I1DhNAbM+KKqQQQO3dEVgT2HFsjM2bMkP7+funp6fHm9OiVNlnVIaic0qS2Sytr4XjZCH7HGwChO/6haKL5ptiHh4fl/nUcu9gETpLWIbD3xFqZPn26J/bu7m7Ezt2yI4Fogu+TN4bbCneaHELnk9EsAS328fFxUWK/741Ks1mSHgKBBPYrveVJvbe31xO7Wn1Dj52bJZCAi4JH6HwYkiKgPj/qW4l9dHRUnnl7QiqVilQq7/y8MkkPPinWruZTfndTq11LA57Up02b5m2ApcRubnjVKj4MxbeKfIhyXRC8Pj51TsBOcSxbC3GTcMkOBLTYlczHxsZkZGTE67mrb/Vv9XN9DfggEIWAlrbqlav36aqXrr713yr/TpZR8k7yWsSeJM2U8iqi4BF6SjcL2XoE9HD8xMREteeuevDq31rsoIJAHAJK7krgaktq1UPXPXVzi+o4+SaZBrEnSTPlvIogeISe8k1C9lWxq/9REtcy1//V4gcVBOIQ0OdJaLmb/1X55eG8CcQeJ7ItTmOj4BF6i28aB4s3PycMvzt4A6TcZHNYPm+HSCH2lIOfZvY2CB6hp3kHkHcYAubnJMz1XAOBsATyJnRdb8QeNoI5vi6PgkfoOb5hHK4a23Y4HPyEm56HIfdaTULsCQe7ldnlQfAIvZV3AGVDAAIQEEHsBbwLWiF4hF7AG4kmQQACVhJA7FaGLVylYwl+rCSTojQd7guhh+PEVRCAAASyIoDYsyLdwnLSEPx7QlfnoW/wNmhQ32pNJxvLtDDYFA0BCDhPALE7dAskIfhSSaS3NC5zO0ZkDKE7dPfQVAhAwBYCiN2WSCVYzyiCr3T3ydqhsgyOl2Va26TMbR+R8S0bvJ65/qaHnmBwyAoCEIBAkwQQe5MAbU4eRvDqEA21v/Zvf7daDl64e3UrRbVPshK7+q/aVlF9m1sq5nV9p83xou4QgAAEwhBA7GEoFfyaWoLX+2yrPbY/+9nPyjXXXONtl6j3SNYyR+gFv0FoHgQgYBUBxG5VuNKtbJDg9V7bl156qVx33XXVIwm1zP2nGeV504Z06ZE7BCAAgXwQQOz5iEOuauEXvPr3RRddJD/96U+9euo9ks1zhxF6rkJIZSAAAYcJIHaHg9+o6eb2mxdeeKHceOONVbHrtAi9EUV+DwEIQCBbAog9W97WlqbFjsitDSEVhwAEHCGA2B0JdLPNVGJfsmRJs9mQHgIQgAAEUiaA2FMGXJTsEXtRIkk7IACBohNA7EWPcELtQ+wJgSQbCEAAAikTQOwpAy5K9oi9KJGkHRCAQNEJIPaiRzih9iH2hECSDQQgAIGUCSD2lAEXJXvEXpRI0g4IQKDoBBB70SOcUPsQe0IgyQYCEIBAygQQe8qAi5I9Yi9KJGkHBCBQdAKIvegRTqh9iD0hkGQDAQhAIGUCiD1lwEXJHrEXJZK0AwIQKDoBxF70CCfUPsSeEEiygQAEIJAyAcSeMuCiZI/YixJJ2gEBCBSdAGIveoQTah9iTwgk2UAAAhBImQBiTxlwUbJH7EWJJO2AAASKTgCxFz3CCbUPsScEkmwgAAEIpEwAsacMuCjZI/aiRJJ2QAACRSeA2Ise4YTah9gTAkk2EIAABFImgNhTBlyU7BF7USJJOyAAgaITQOxFj3BC7UPsCYEkGwhAAAIpE0DsKQMuSvaIvSiRpB0QgEDRCSD2okc4ofYh9oRAkg0EIACBlAkg9pQBFyV7xF6USNIOCECg6AQQe9EjnFD7EHtCIMkGAhCAQMoEEHvKgIuSPWIvSiRpBwQgUHQCiL3oEU6ofYg9IZBkAwEIQCBlAog9ZcBFyR6xFyWStAMCECg6AcRe9Agn1D7EnhBIsoEABCCQMgHEnjLgomSP2IsSSdoBAQgUnQBiL3qEE2ofYk8IJNlAAAIQSJkAYk8ZcFGyR+xFiSTtgAAEik4AsRc9wgm1D7EnBJJsIAABCKRMALGnDLgo2SP2okSSdkAAAkUngNiLHuGE2ofYEwJJNhCAAARSJoDYUwZclOwRe1EiSTsgAIGiE0DsRY9wQu1D7AmBJBsIQAACKRNA7CkDLkr2iL0okaQdEIBA0Qkg9qJHOKH2IfaEQJINBCAAgZQJIPaUARcle8RelEjSDghAoOgEEHvRI5xQ+xB7QiDJBgIQgEDKBBB7yoCLkj1iL0okaQcEIFB0Aoi96BFOqH2IPSGQZAMBCEAgZQKIPWXARckesRclkrQDAhAoOgHEXvQIJ9Q+xJ4QSLKBAAQgkDIBxJ4y4KJkj9iLEknaAQEIFJ0AYi96hBNqH2JPCCTZQAACEEiZAGJPGXBRskfsRYkk7YAABIpOALEXPcIJtQ+xJwSSbCAAAQikTACxpwy4KNkj9qJEknZAAAJFJ4DYix7hhNqH2BMCSTYQgAAEUiaA2FMGXJTsEXtRIkk7IACBohNA7EWPcELtQ+wJgSQbCEAAAikTQOwpAy5K9oi9KJGkHRCAQNEJIPaiRzih9iH2hECSDQQgAIGUCSD2lAEXJXvEXpRI0g4IQKDoBBB70SOcUPsQe0IgyQYCEIBAygQQe8qAi5I9Yi9KJGkHBCBQdAKIvegRTqh9iD0hkGQDAQhAIGUCiD1lwEXJHrEXJZK0AwIQKDoBxF70CCfUPsSeEEiygQAEIJAyAcSeMmAbs//lL3+5Q7Xvu+8+Of7446f8vFKpyOmnn25jE6kzBCAAgcISQOyFDW38hm3evFkWLVokSty1vsrlsixevFhmzpwZvyBSQgACEIBA4gQQe+JIi5HhddddJ7feemvNxpx33nly2WWXFaOxtAICEIBAgQgg9gIFM8mm1Ou101tPkjR5QQACEEiWAGJPlmehcqvVa6e3Xqgw0xgIQKBgBBB7wQKaZHOCeu301pMkTF4QgAAEkieA2JNnWqgcf/zjH8stt9xSbdPHPvYx+eQnP1moNtIYCEAAAkUigNiLFM0U2mL22umtpwCYLCEAAQgkTACxJwy0iNnpXju99SJGlzZBAAJFI4DYixbRFNqje+2sW08BLllCAAIQSJiA02K/Y9XmhHEWN7uxsTHp6OgobgMTbtkZ+7NxT8JIyQ4CEAhJwGmx3/67TSExcRkEohE4532zoiXgaghAAAIJEUDsCYEkGwiYBBA79wMEINAqAoi9VeQpt9AEEHuhw0vjIJBrAog91+GhcrYSQOy2Ro56Q8B+Aojd/hjSghwSQOw5DApVgoAjBBC7I4GmmdkSQOzZ8qY0CEDgPQKInbsBAikQQOwpQCVLCEAgFAHEHgoTF0EgGgHEHo0XV0MAAskRQOzJsSQnCFQJIHZuBghAoFUEEHuryFNuoQkg9kKHl8ZBINcEEHuuw0PlbCWA2G2NHPWGgP0EELv9MaQFOSSA2HMYFKoEAUcIIHZHAk0zsyWA2LPlTWkQgMB7BBA7dwMEUiCA2FOASpYQgEAoAog9FCYugkA0Aog9Gi+uhgAEkiOA2JNjSU4QqBJA7NwMEIBAqwgg9laRp9xCE0DshQ4vjYNArgkg9lyHh8rZSgCx2xo56g0B+wkgdvtjSAtySACx5zAoVAkCjhBA7I4EmmZmSwCxZ8ub0iAAgfcIIHbuBgikQACxpwCVLCEAgVAEEHsoTFwEgWgEEHs0XlwNAQgkRwCxJ8eSnCBQJYDYuRkgAIFWEUDsrSJPuYUmgNgLHV4aB4FcE0DsNcLz8rNPyrVf//IOv12w8H1yyVe+JtP6Z8QKrJnvx674shxxwhmx8mkm0fatA/KTf/6qrHnxd9VsPvM3V8teBx4WKtvH771DVq98XM67/M/l6Qfvqf5/R2dX3fR33fB97/enXnR5qHKauWhsdERu/f6/yFEnne21S7f51IuvCN3OZspH7M3QIy0EINAMAcReR+yP3rPUk5cpLCW1R5cvjS13JbfZuyxoidBVU/WDhSny9Wtfleuv+ms54YJPhqqXjWJv5kMSJy1ij0ONNBCAQBIEEHtEsaue302Lr5LTLlkkc+fvUe0J6t7vcedeVO2RKgFuG9gkzz26wusd73PwkbJ65WNeibrn39HV7fUsn1qx3Pt5vfRKxi88+Yj0z5zt5afSzJwzTy698h/lifvulPtvu8HLo9ZIQL1eqxL+XT+9pvrA4u/Vm3nWE7t6cNH18LdH/W5g43rZ9OZar/667oqj+tK97CAW6uHjkTtv9q77zV23eZxOuOCyKex02w855qQpP1d1P+DIY7xRCtVjVwz9IweqTRvXrfFi56/HoceevMMDXqMPH2JvRIjfQwACaRFA7E2Ivbd/RlUWarhXC2Gfg4/wer5KFvfe9GNPvFpeZo9dXz9j9twpQtH/rpX+6Qd/Vc1Ti1SL1y9os3n1fmdep6V+1Mlne+3w/7uW2O+96TpP3HqUwz86oOuqRwvU729efJXXFiV59YBTi4V/VMHPTtXf5KXzCxqKV9eaDzHmsP1uCw/w6qFj6F0b4xUCYk/rTxb5QgACjQgg9ohi171O/X5Z9/J0NkpAd/5ksVyw6Ep57rEHd3j/bIo9SLQq/c2L/0nOX/QXsub5ZwLTm73NoJ62OaJgNs8Ucr334UHXmeWY7ar3jt0/QuAXpPkgNGvn+VNkq+ptslD/1lz0Q5I/dOb19cS+84I9pzyQmTF7a80r4n8F4x+lafShUr9H7GEocQ0EIJAGAcReR+yNJs/5h511VnqYvZHYgwRqSiSs2E0R1ZNQWLEH9VBrPbAEiV2Vc8s1V1fJ6h560PwCXZaad6An5OmHDrMt9cRuxkEP79cTuxpdMdtoDsP7664b4X9t0OjDiNgbEeL3EIBAWgQQe8Qeu3l5oyHaIJGacsta7GGH4uOKXUleCV0/2ChW+r22lql/4mAzYtdC1+/AN294s9qrbyR2zeLCP/1bueuGf6/Ong/78NPoA4nYGxHi9xCAQFoEEHsTYm8kgUZiT2ooPmyPvd7kuUavABoNxZ/5qS/Ish99uypIhTXNofigkYmwQ/Hm8jf1UPDCU//tvTpRSxjDPvw0+kAi9kaE+D0EIJAWAcTehNj9k8pUVo2WgkWdPOcfnvb3ppWIwopd1a/ecrdDjjnRm8QXZ/KcFruedGbOLDeH4s2Jf+bSQb06oN7kOfMdu/+hQf9brUIwJ+PVW8fu7/GrVwBBk/LiyB6xp/Uni3whAIFGBBB7E2JXSfVsbTUMrL7MpVGNeuzq+npLvGqlV+n0Ji9RxR5UZ/Uz/wY1cZa7KQZqPbxmcelXvi5Prri7OtNdibSrp7e6/C/qcjf/5Dlzsx+V1/mLrvQm4OnZ/Pp9uVoad+xZF055LWA+5PiXB/rbHmdTIsTe6E8Pv4cABNIigNjTIku+ThNA7E6Hn8ZDoKUEEHtL8VN4UQkg9qJGlnZBIP8EEHv+Y0QNLSSA2C0MGlWGQEEIIPaCBJJm5IsAYs9XPKgNBFwigNhdijZtzYwAYs8MNQVBAAI+AoidWwICKRBA7ClAJUsIQCAUAcQeClP2F8XZnzyJWprrw/17qsfN39+WRhv7xC0nT+kQe56iQV0g4BYBxJ7TeOdB7GqHtiS+WtWWJOoeNw/EHpcc6SAAgWYJIPZmCaaUPowM/Ru0mMfDqmqZh6OYm6z4N8VR1+pNWmr12NU1QYfi6HT+jXr05jP6aFt9Xr3aCGfTW2unHPjSaDOctS+tkuHtg9Uz62udN59SKGJli9hjYSMRBCCQAAHEngDENLJoJHbzLHN1jKn/3/7hbv1vvfWr3rpV1d08x9w8Y77eULy5Hezg1gFvxzm185t5Lr3KWx1vOzYyLOZRsmbd1O/UQTH1zn5XB8sEneFe6/jWNOIRNU/EHpUY10MAAkkRQOxJkUw4n3piN88xP+KEM6ol633kg7ZPrVc98/CUMGI3r68lV7+8a4k96NjXWgfOqL3c6x1kk3AImsoOsTeFj8QQgEATBBB7E/DSTFpP7LXkps8VP/z406rHl9br1QadY95I7EEH32gO/iF1vW9+vR77vTdd5yXXe9+r/6919jtiT/OOI28IQKAoBBB7TiOZptjrnWNeT+xBJ58pfKbQ9fvvsD12xJ7TG5BqQQAC1hJA7DkNXVpD8Y3OMa8ndvO9ujq7XH/5T5hTPw8rdobic3oDUi0IQMBaAog9p6FLevKcfm99wef+Um767v+VUy++wpvo5j/HvJbYFaabF1/lnXXuH973n1euZ+uHGYoPM3nOPJOed+w5vWGpFgQgkBsCiD03oZhaEf/7av1b8wzzKMvd6qUzzzE/4MhjqueWm7PiX3jyEbn/tht2oKXOOlfvx8339Urohx17iiy99pvVBwH9ezVUr76CZK2XxJnL2fyz+xF7Tm9YqgUBCOSGAGLPTSioSJEIMCu+SNGkLRCwiwBityte1NYSAojdkkBRTQgUkABiL2BQaVLrCSD21seAGkDAVQKI3dXI0+5UCSD2VPGSOQQgUIcAYuf2gEAKBBB7ClDJEgIQCEUAsYfCxEUQiEYAsUfjxdUQgEByBBB7cizJCQJVAoidmwECEGgVAcTeKvKUW2gCiL3Q4aVxEMg1AcSe6/BQOVsJIHZbI0e9IWA/AcRufwxpQQ4JIPYcBoUqQcARAojdkUDTzGwJIPZseVMaBCDwHgHEzt0AgRQIIPYUoJIlBCAQigBiD4WJiyAQjQBij8aLqyEAgeQIIPbkWJITBKoEEDs3AwQg0CoCiL1V5Cm30AQQe6HDS+MgkGsCiD3X4aFythJA7LZGjnpDwH4CiN3+GNKCHBJA7DkMClWCgCMEELsjgaaZ2RJA7NnypjQIQOA9AoiduwECKRBA7ClAJUsIQCAUAcQeChMXQSAaAcQejRdXQwACyRFA7MmxJCcIVAkgdm4GCECgVQQQe6vIU26hCSD2QoeXxkEg1wQQe67DQ+VsJYDYbY0c9YaA/QQQu/0xpAU5JIDYcxgUqgQBRwg4L/ZyqeRIqGlmVgQqk5OC2LOiTTkQgICfgNNiH52Y5I4ISWD53XfLyaecEvJqLuts44GRuwACEGgNAafF3hrkdpZ64YUXypIlS+ysPLWGAAQg4BABxO5QsJtpKmJvhh5pIQABCGRHALFnx9rqkhC71eGj8hCAgEMEELtDwW6mqYi9GXqkhQAEIJAdAcSeHWurS0LsVoePykMAAg4RQOwOBbuZpiL2ZuiRFgIQgEB2BBB7dqytLgmxWx0+Kg8BCDhEALE7FOxmmorYm6FHWghAAALZEUDs2bG2uiTEbnX4qDwEIOAQAcTuULCbaSpib4YeaSEAAQhkRwCxZ8fa6pIQu9Xho/IQgIBDBBC7Q8FupqmIvRl6pIUABCCQHQHEnh1rq0tC7FaHj8pDAAIOEUDsDgW7maYi9mbokRYCEIBAdgQQe3asrS4JsVsdPioPAQg4RACxOxTsZpqK2JuhR1oIQAAC2RFA7NmxtrokxG51+Kg8BCDgEAHE7lCwm2kqYm+GHmkhAAEIZEcAsWfH2uqSELvV4aPyEICAQwQQu0PBbqapiL0ZeqSFAAQgkB0BxJ4da6tLQuxWh4/KQwACDhFA7A4Fu5mmIvZm6JEWAhCAQHYEEHt2rK0uCbFbHT4qDwEIOEQAsTsU7GaaitiboUdaCEAAAtkRQOzZsba6JMRudfioPAQg4BABxO5QsJtpKmJvhh5pIQABCGRHALFnx9rqkhC71eGj8hCAgEMEELtDwW6mqYi9GXqkhQAEIJAdAcSeHWurS0LsVoePykMAAg4RQOwOBbuZpiL2ZuiRFgIQgEB2BBB7dqytLgmxWx0+Kg8BCDhEALE7FOxmmorYm6FHWghAAALZEUDs2bG2uiTEbnX4qDwEIOAQAcTuULCbaSpib4YeaSEAAQhkRwCxZ8fa6pIQu9Xho/IQgIBDBBC7Q8FupqmIvRl6pIUABCCQHQHEnh1rq0tC7FaHj8pDAAIOEUDsDgW7maYi9mbokRYCEIBAdgQQe3asrS4JsVsdPioPAQg4RACxOxTsZpqK2JuhR1oIQAAC2RFA7NmxtrokxG51+Kg8BCDgEAHE7lCwm2kqYm+GHmkhAAEIZEcAsWfH2uqSELvV4aPyEICAQwQQu0PBbqapiL0ZeqSFAAQgkB0BxJ4da6tLQuxWh4/KQwACDhFA7A4Fu5mmIvZm6JEWAhCAQHYEEHt2rK0uCbFbHT4qDwEIOEQAsTsU7GaaitiboUdaCEAAAtkRQOzZsba6JMRudfioPAQg4BABxO5QsJtpKmJvhh5pIQABCGRHALFnx9rqkhC71eGj8hCAgEMEELtDwW6mqYi9GXqkhQAEIJAdAcSeHWurS0LsVoePykMAAg4RQOwOBbuZpiL2ZuiRFgIQgEB2BBB7dqytLgmxWx0+Kg8BCDhEALE7FOxmmorYm6FHWghAAALZEUDs2bG2uiTEbnX4qDwEIOAQAcTuULCbaSpib4YeaSEAAQhkRwCxZ8fa6pIQu9Xho/IQgIBDBBC7Q8FupqmIvRl6pIUABCCQHQHEnh1rq0tC7FaHj8pDAAIOEUDsDgW7maYi9mbokRYCEIBAdgQQe3asrS4JsVsdPioPAQg4RACxOxTsZpqK2JuhR1oIQAAC2RFA7NmxtqakZcuW7VDXhx56SD70oQ9N+XmlUpGzzz7bmnZRUQhAAAIuEEDsLkQ5Yhu3bNkiixYtkvHx8Zop29vbZfHixTJ9+vSIuXM5BCAAAQikSQCxp0nX4ryvv/56ufnmm2u24Pzzz5dLL73U4hZSdQhAAALFJIDYixnXpltVr9dOb71pvGQAAQhAIDUCiD01tPZnXKvXTm/d/tjSAghAoLgEEHtxY9t0y4J67fTWm8ZKBhCAAARSJYDYU8Vrf+b+Xju9dftjSgsgAIFiE0DsxY5v060ze+301pvGSQYQgAAEUieA2FNHbH8ButdOb93+WNICCECg+AQQe/Fj3HQLVa/9C1/8onz7W99i3XrTNMkAAhCAQLoEEHu6fK3PfaIyKavfHpFn16yXAxfMlX126pK2csn6dtEACEAAAkUlgNiLGtkm26WF/sLGYZGSiPq3J/RJkX1ndyP4JvmSHAIQgEBaBBB7WmQtzTdI6P6mIHhLg0u1IQABJwggdifC3LiRYYSO4Btz5AoIQAACrSaA2FsdgRaXH0fo9QS/905d0s47+BZHleIhAAGXCSB2R6M/XpmUl94eEfMderMozCF6BN8sTdJDAAIQiEcAscfjZm2qNIROD97a24GKQwACBSSA2AsY1KAmZSF0BO/IzUQzIQCBXBNA7LkOT/OVa4XQEXzzcSMHCEAAAnEJIPa45HKeLg9CryX4he+ug2eSXc5vIqoHAQhYSQCxWxm22pXOo9ARfMFuMpoDAQjkmgBiz3V4wlfOBqEj+PDx5EoIQAACcQkg9rjkcpLORqEj+JzcPFQDAhAoJAHEbmlYiyD0IMFPGnvR8w7e0puTakMAAi0lgNhbij964UUUOoKPfh+QAgIQgEAtAojdkntDCV0dn/qiuqYZMwAAIABJREFUcdqaJVWPXU21kx09+Nj4SAgBCDhKALHnPPAuCp0efM5vSqoHAQjkmgBiz2l4EPqOgaEHn9OblWpBAAK5IoDYcxUOEYTeOCAIvjEjroAABNwlgNhzEnuEHj0QCD46M1JAAALFJ4DYWxxjhN58ABB88wzJAQIQKA4BxN6iWCL05MEj+OSZkiMEIGAfAcSeccwQevrAEXz6jCkBAhDILwHEnlFsEHpGoI1iEHz2zCkRAhBoPQHEnnIMtNBf2DgspZLIRGUy5RLJ3k8AwXNPQAACLhFA7ClFG6GnBLaJbBF8E/BImjmBl94eybxMCswngb136opUMcQeCVfjixF6Y0atvgLBtzoClN+IwODohNz70pZGl/F7BwiUSiU5c/+ZkVqK2CPhqn0xQk8IZIbZIPgMYVNUJAKvbB6RZ98a8jas4sttArv2d8pRu/VGgoDYI+Ha8WKE3iTAHCRH8DkIAlWYQuCR17bJW4NjUHGcgDq6+pB502TBjM5IJBB7JFzvXYzQY4LLcTIEn+PgOFa1O1ZtprfuWMyDmlsuleSkfaZLT0c5Eg3EHgnXe3u5M8s9IjiLLkfwFgWrgFXdPDwuD726DbEXMLZRm6SEfsrCGVGTCWIPiYweekhQBboMwRcomBY1RXUaVm0YEl6vWxS0lKq656wuOXTetMi5I/YGyBB65HuqcAkQfOFCmusG3f/yVlG9dr7cJtBRLsn75/fKvL6OyCAQew1kCD3yvVT4BAi+8CFueQNVL33Zc5uEufAtD0UuKnDG/jNFTaCL+oXYfcQQetRbyL3rEbx7Mc+qxesHx+Sx1wdljHH4rJDntpzpXW3ykb2nx6ofYn8XW96Fvn3rgPzkn78qa1783Q6Bnjlnnlx65T/K3Pl71LwJxkZH5Nbv/4scddLZsteBh8n6ta/KzYv/Sc5f9Bd108W5qx6/9w7ZuG6NnHrR5XGSy103fN9LFzd9rEJjJELwMaCRpC6BZ97aLqvZcc75u0T10feb0yP7z+mOxcJ5sedd6DqqSuw3Lb5KTrtkUSwR+8Ue624JmcgVsWscCD7kjcFlDQncs3qLqF3n+HKbgHq//oEFfbLTtPZYIJwVuy1Cjyp2JdVbrrnaS6Z78uq/qrf+1Irl3s8/dsWXZcF+B1V77Opnd/5ksbz/+NNlybf+t3fNcedeJIcff5pcf9Vfy+YNb8qChe+TS77yNZnW/87SC9Wrvv+2G6o3nbpe9bDN8g899mQ57/I/964xy9c/7+h8Z/9jNXpgljNr3nyZMXtu7nvs/k8cgo/1N4hE7xIYnZiUu17YzGx47ghRr9XPOmBWbBLOid02oUcR+8vPPil3/fSaqoDNf3d0ddccildlKLEecsyJnky1aPtmzPLy0mn3OfgIOeKEMzypD2xc70lbyVmVc+3Xvyyf+ZurvWF+s8euRwp0Wv1QoP5rlnX+oiu9tDov/aAQ+85uYUIE30L4Fhe9dsuoPLVuO+/XLY5hUlWfPa1djtmjP3Z2zojdVqGbYq/1jl33gF9/8bkpYjfvinrv2NV15vv2IBnXG17X7/9PvfiKHcSuRP3oPUurDwGqLPO1wprnn5HVKx+f8ntb3rE3+tQh+EaE+L1J4LdrB2XNllGgOE5A/d1439we2XtWtBPdTGyFF7vtQo/SY9dC1kPuuget8ogjdj3RTqUPErs57K6uCeqx+6/R7dGvCZ64707vR+ZEuWbf0eft7wKCz1tE8lmfX74wICPjlXxWjlplRkAtb/vwnv3S39UWu8zCir0oQo8idvMu0O/A/e/Zg2bF1+qx1xK7lrV+767Sq9GEoB67utbfI/fXs+hi1+1F8LH/ThU+oZow9+uXt8oEy9wKH+tGDexoK8np+0U7ptWfZ+HEXjShxxW72UtX77cPOeakuu/Yg4big8R+wgWXTclHldNoKN587++/AYPEX5Sh+FofYATf6E+be7/nmFb3Yl6rxXGOaS2s2Isq9Chi90+eM9eq65nxzfbYtdj1ZDhz+L/e5DlzlrtZT39vvwiT58L+iULwYUkV/7owx7QG7WVhvm5Lk1ISD9v+DkCa9fXn7X9Naf7eXKVT7zo9QvnWmldqzmVqtk1xj2ktnNiLLnRT7LUmz6lr1BI2PWPdXIZmfvD1ELpeyqZ76Sp92B67OZNdLYNTX5d+5evy5Iq7q0vU/LPqtbz15jr+pXPmcjf1Ieue1itdPdOsW+4W90ON4OOSK066Rse0+leeqJbrz80JF3zS++yn+ZWE2NOsX6O8a+3joX+uOx5h9vvwd6AalR3l93GPaS2M2F0RepSbgmvtJuCi4B977DH54z/+Y/ne974nRx55ZDWAw8PD8rWvfU2OPvpoOe+88+wObIPabx4al4deq31Ma72erl8y/h6nuWxUPdivfWmVDG8fnLKnhflQYO5PYT6Am2L3S96/i2XQXhpqV8ygdpjXmuWpPNXeGnvsf4jcfeN/eAT9+19EuSnqCbvesuCgMtIUe9xjWq0XO0KPcjtzrY0EXBK8Fvshhxwi//qv/yozZ74zacglsTc6pjWsSGr1PnVvVEtUj+KpfG9efFV1O2r/fBfz3/fedJ0XFzViV0/sgwOba+6loUfuzEm2jy5fWt13Q5Wn/z24dWDK3hr6oeCok8+ONTphi9jjHtNqrdgRuo2Kos7NEHBB8ErsP/zhDz1M++67r3zxi1+sKXb9EKAu2HXXXeWb3/ym7L333s0gzkXaRse0NlpZohsR9ABg9qb9e0aYPeidF+w5ZWWLH0zYHrtf7GY+jcoz988wd8bUZ2A08zog6lC8XjKs62+exxH2QSvqzdXMMa3WiR2hR709uL5oBIoseCXrn//853LJJZfIX/7lX8o//MM/eEPy/h67uu7v//7vqzL3/9vWmIc5pjWs2IOuq7cZlCna3hkz6x4KFVbs/u2rzTk+YcpT5czeZcGULa+TFLtf2Oq+MV9XtPode9xjWq0RO0K39U8V9U6LQBEFr8X+1a9+Ve68805P8mpIvru7u/qO/bTTTgt83/6tb33LQ617+WlxTzPfMMe0hu0h5kHs5gmT/r00evtnVEcFaj1IxBG7f7VA0Lv4IGErXvfe9OMpJ2O2UuzNHNOae7G7LHTzBm00UaTRsFa9P0ZqeO6RO2/2TorTB7Ek8cermaNhzSFDVZe0jpRNop2tzqNIgjfFrriqCXPz5s2TK664oirzj3zkI/Jnf/Zn8qd/+qdTJtjdeuut8sorr1gt9jDHtNabPGd+boKGwbMeivcfHW0Orx9w5DFVsQcN/bdiKF49SLz8zBPV9/ytEnupJLLf7PjHtOZW7C4L3XxH5t9XvZZEmhG7elJVX0kvkQnzoajVHsQe/XHhHcFPyr6ze2SfnbpErYG17csUu+qlv/TSS57A/+qv/kqWLVvmzYovstjvWT0gg6ONt5Gtt9xNH94UZvKcuQtk0MZS5u/NkYIVv1ji3Vr6BEdz0puS49MP/srr+fofLszPtdlj14dF1Zs853+4T+Mdu2agTpQ0T6I0N+fyf6bCjqBE+Sw2e0xr7sT+ntCHpFQqObulYtC+6y88+Uj1w6T+p9aHxHz69afxH+ii/q2WkRx92vmiPmjqjHd1XOsv//N73vGs/pEC/QdF3zj+JTD9M2fLg8t+5glm3h57y6rHH/Yu9R8Nq57kzfXq6hpzQkqQ2M/5wy/JiqVLxDwZrpWbXET5oGZ5rc2C94tdcVM98WuuuUZ22mkn+fjHPy5FHYqPekyr//OjWPk3qGm03K2e2FV+5nI38/NpStVfxoVf/Fv57X3/5Y0Aqs+5/0hnXceoy92yELv+u6pPtwzaWTMLsTd7TGtuxE4Pfcc//f6T0OotKzGffk2xex9O4+hWvR70gkVXemepm8PwYyPD3tCY+tJnrZtHsqrT4szlMPqDuddBh1eXvdQbxvLLWn149PGs+o+DKls9KauHiqANc/wzeYNOi8tSonkuy0bBB4ldT5y744475O/+7u+8dexFnDzHMa15/jRlW7dmj2ltudjpode+YZIQu//dlf+kNFWG6tWrIbWgJ2j/ZhP+2tabHRv1Hbs52aeW2FX55pO7nlyT9GuEbD/G6ZZmk+CDxK7o6CF59a5db1BTtOVuHNOa7ufAltyTOKa1ZWJH6I1vsyTErt5dmfJT/7/vYUd756TroTb9b3MpjJ70Ukv2qrett5DVy0P8IwphxF5rBmstsZt73O+28IDqawT/JJ3GdN27okiT7IoYPY5pLWJUo7cpiWNaMxc7Qg8f6KTErvM59aI/krtu+Hc587LPe8PwSqrLrvvOlH+rd+z63ZiqqX+tqRa6fk8Wt8euXx2o/eL1vvZheuxK4HrU4fDjT0tlNn/4CNl5pU09eDsJR681x7RGZ1bUFEkc05qZ2BF69NswKbHrnvi+h/6ebN28sXqYijkM75e47tH7l8dsXLdmymEsccWuZsv6Z/yHFbu5b3TfjFmJz+aPHik7UyD4/MSNY1rzE4tW1ySJY1pTFztCj3+b+MVu7p2setzmspJak+fMIXd1ypv/dDdVO/1+2r/UQ61pN8UdtHf0LddcXd2pKcpQfNAe0td+/cvVWfi1huJVj10P8b+2auWUzSTik3Y7JYJPJ/5Lly6Vs88+O1TmYY5pDZVRShdFWX3SzDJXf/WbnRwbdpe+lLBFzjapY1pTEztCjxzTHRL4b+p6y0oaiT3o1Ce9zM3/Pl3NctdHvdY7m1i9W1fbPeq1p+baVt2YWkfD+pfBqHIOO/YUWXrtNz1Zq69ax8iq39n2gW3+bkg/BwSfLOMbb7xR7r77bjnnnHPk3HPPrZv5slWbc720F7Ene2/Uyk0d03rywunS3V5OtMDSpFqA3MQXQm8CXopJ/cPuQUVF+fCmWNVQWae1qU6owgt+EYJPJsBK7EuWvLORi1qDX0vwjY5pjVObWmvE9bp1NSLW6BhUcy8N9eC96c21ok9i0w/XasROfek17v694fX8Gf8kWXM/9lp5qVE9NYqnvsz9Mvx7aQTtP6/m7qi67Pf+o71jadUS2qBdNf310vXVddo2sEmee3SFqPz8ewTEiUujNEkd0+ovJ7bYEXqjkLX29/7Z8DaL3dxUh9nw6d1XCL45tqbYdU5Bgm90TGucWoQRu96ExVzqqo9BDXrtZ77K84+Y1TvD3F8X/yZZ/tFE899vrXllylwc/7VBm3TpNugNfHbf/+BAsfuPfvX/O2jv+DixiJImqWNamxa72i3p5U0j8sJGt3eKixK8LK/VN7feZrJe2Tb02PXTuvlknSVPF8syBb/XrC7pbLNvq9pWxC1I7EGCb3RMa5y6hxF7rZ3c9G5rtXZ4VHtj+FfPqDrqZbWHHHOS3Pr9fxG9Dat/7wx1rZ4Ae85nv+St1DHLMttrvo5UPzfz1dfp/NWyXXMzLt3rNnfXM/MOep1nPjg899iDUittnJg0SpPkMa1Ni3356gEZHquIOm6QLwhAoLgEvC2eR7bLz67+n8VtZIItU2fDr1y5sm6Oc+bMlbO/9PUES30nq2bEfuxZF+5wFrs5IU6dxGbuY2FWXj1w+8Xu31JWX6+G1y/43F/KTd/9v1OG+GuJXe+MqYbF/V96vo9fxPUm3wXtNW/uzJm12FWbkjqmtWmxbxoa93rsb2wdRe6JfzzJEAL5IKD2rlbLcHaZNikzOpOd2JOPFiZfi5tvvlluuummmhmrCXXHnXaOPL+lLGMJ94zSFnu90xb9s+LrHdbSaJTQFLMWu/meP0wPvNZBWnkTe5LHtDYtdp3BttEJeX7DMIJP/u8DOUKgZQS00Peb0y19nW0tq4eNBdcaildCVxPp1Pv2MMe0xml7M2IPMxSvzpSoJVi/2OutYPG/b/e3NWgovt6wva1D8Ukf05qY2F0VfKO91ON8KIPSmO+pGj3lJlVms/kEbVFbK8+0lq/51+HrDXZsYfj/t3cmwJYVZZ7/3r7VShWUQLFboAKORSnd2CqLTI1LixBIw0j3hGOgNTMd2obaTIRtu4UaMUzbYWtMzJQ4EzqtBgwiYgctomzSDS1alIJUC0UtUAtQ1F7vvXr7m8gD55nv1Ln3nrw3z82Tmb8boUXVzeX7fl/e+7+ZJzO/VmPQbH0EvVlyv6+XFXZd0NNS9289LOrWOduvbMrW7B0V+j0R6QZU/bOS3aSWLqenO8Ozm+v0z5O66ll/Fp7dlKZ81T/vKrlUNlFVuiKQvchK2aUnotJ/GKSPAFLht7F5rl3P2G2nabUu7LEJvAtht/0lUFZ7VRD27FIdwl4/2gi6vU9DKux5gq56MU3TamqZntZVPc++6F3XyO82/PMx2RPzhD0V3/Q429v/5IPJsS99ll4rHateNz3Wlk0xm00HnZemWl2ulf4oUMfO1P0W6ZXSqV2qL30jrX58Tfl8zpo3y56d25s+7tYuYbedprU0YY9F4LPCXu9cZPbDouc3Vu9lPyjphyJ7nvTy626Q2/7uCzXPlOpnPvXrZNW98Oqlv58dAOnKgPr39JIa9Sv9wJ7dkn6Y9DOotXKq63fBq7b0X/rZs6/ph3XTLx9KzNn865fzzuftfM9busvO9vU78NNLc9RFOmm/6kslZahfxlOPi+mXqm/lEXT7EVPCfvnllydL7nkv0rTaZ+5ri7bTtJYu7KELfL1zlNklqHrnNZUAHdr30twvy/RYly6ItWab2WUx/e+Kv3oetnTFSUnb6qWWyRYvO37ene9pnNIfEVkh1n956zfC1cuprja76Mdi6vmvdqAq4U37zS656QNVfyyRCr26PCPNIa9fxtNoKb4oF1+/MBrZjaA3IlTe+xt3j8iuwxPldUDLXhAoI01r24Q9VIHPJknJO26hnh9d89G/rnteMxuI7DPgWs/Ys/nWVTv6rPacCy465uhKvefZ2feyKxKN7oHW6+vCnt5IVWvjS96su9YGHf1IivI3XYlIz83ql/E0EvbsTVrtWnpz/Y2DoLuOgAhpWt3HoAoWlJGmte3CHprA68L3m4fuSdxTNzmlr1SE3nH9f657XjM7Y07/3mjGrs6U5h09SS+LsCHs6urJq9bdmKR6zRP27OOH9PmZLuz6XfZpYprsLFwX1Xqb2/Rn92pzzTOPP5rcWa9eyl89FS3CPv8jjqBX4atckg1zP99+pNL3w1eDVPhWqAuf1q5aUqqjTV8p26xVvh+TsyXs6RJ4+pxX8dRnrLVm7C6FPV0tqJVTvSxhV2zSHy7puFu56nVJbnaVqW7LExvkrVf8++QthP1lQgh6s99Q5dQjTWs5XH1stYw0rc5m7NmOfRV4G0vx9WbB6VKxy6X4WjN2FcN6OdXLWopX/arn6E/+4oFkGF249kpRKwJqpn7CytPllFXnip6uNl1FaXRksKwjdy6/bBB0l/Rr9131NK3VpBaeVWWlaa2MsKeG+CbwrWyeS+v+8Qf/Qh6+67a5+5L19KyNluKVgBXZPFf0WXLeM/Z6wq6fP003/OUtxaud7/USOOzcvGnevcyNzpmnu/EXLF6abJrr6etPNgXqm+hinrEj6NUWgaqnac2jV+sGuUafVZNImPy4bjVXe2pXo31Djexvxf+y0rRWTth9E/hWjrspX1Phzh4bu/6TX5LHH753bve6LmR59yvrR+Kyx92ym9BMN8/Ve8auH9HL5lTXc66nR9dqnVc12TynuGUv4FD/lueX/mVUhKHvm+cQ9EZfw+7fLyNNazu8QtjzKbci7GWlaa2ssPsm8O34YNEHBGoRQND9GRs207TmiUpWgNUPWrX/ZO3710k2kUo2L3qtuzSyq1/6MVN9opGUu+XmuaOntX5wp9HSN97m5U/PbsxN7dVzsusTGX3ikL0nJK+t9PrcJx6+LzGpmfzxebnqi47GstK0Vl7YEfiiQ4RyMRJA0P2Luu00relGUrVxNHt1bE9vX7KSpV7ZEzLZy55UO/Xu0kh/MKRimN6Fof+4yB6/rbfMnb3nI3sFbDbpS14ed32PT3bFLi9HfHrcNu8q2vS4bPbHUrbf7KPP7HW7RUdkmWlavRF2BL7ocKFcDAQQdD+jrJK4/fipA2Izy7X+rFndAf/zH343gfO2K68XNWtVj9LUBlO1jyW95Cqlp98JoY6z6q+swKXCrsroPwBqlVPHfuu1n91zk53d//aR++vau2fns3Obd7OXYaV+pD96lp5w0jErCWmZvKQ1tTjl5Y9vZSm+rDSt3gk7Au/nFxpW2yGAoNvh6KqVl0Ym5bFdI1bTtGZziCvflDC9+vUXijoOmy7DP3jH389dE637n71KudY+GH2ZPu9+9nSDrv5DQyV4UfdM6Hd7pH3n7YnR6zayVxd29YOmXo541Wet/TN5aWbT67SznPL2NzW7+a7MNK3eCjsC7+qriX5dEEDQXVC332cZaVp1YVEiqgRdvdL/Vnke1DJ9vbzo6WxZXetc6y6NdKn+ondeLXd96+ty5bq/TJKyZGes+gVS6tIuZU+RS6mUDVlhV/+W96MgWzYvW50evXobhlvNH9+MsJedptV7YUfg7X/50GJ1CCDo1YmFDUvu33pIRiZmbDQ1rw0lXCoDmspk9s4/+y8ycuRQMlPvGxiUf/PWtXNZ0YrOWlXj9ZbY9efx2Wfhqq56v29gaM6e7DJ/Ksz1Ntqppfh6p1T0HwF5NuiA8pb90/dbzR/fzFJ82WlagxH2qgt8o8tRWvmk2zrPWdSGRr/8i7ZTr1w25avJ+dZG/de6AldtNKrKC0GvSiTs2TE+PSv3PnNQ1HN226+8OyT05E9qbGc3qykb0s/VO//Dn8uP/+//qHuXhv6519vKu7Y6tSe76173O7sprdbmuTWXvTtZcdDtVQmt1DJ/dvPchvvumtuRrwtumiNez1WR3QyY3TxXr1/9B0kzm+fKTtManLBXVeARdrOvsqywm9WuXTrvyy27G9hWX820g6A3Q82POmWmaa01rhWZbO4K/Vm0nhe90V0a2R/0aQbGq//8U/KT7/zPeWmki85i9R/ZefnT6+VxT+vqudrr5Yiv94M+3VfQTP74vFz1jUZk2WlagxX2Kgm8vhmlaC7wWuc3swHLO8+pUsAuXLJMHvnx7Unxd33gI/LgHd+Zeyam/i3vQ/qtL31irvn04py8AZqtW+tyHFW3nh8mudzVc0J9WU73Oy+vvVoGfGrDw6LusVcvPR1sdvkve8lQow9lGe8j6GVQrVabMaVpVZ97PRlTtSLh1pp2pGkNXtirIvB5M/ZaucAbnaPME3d9SUoJ7/ZNv5lbksoTLl2c6131qjbHZF/ZxCr68pd+xjO95jXv7KhK2mKSy11fildLcD9cf5Ncf+OXk2eH2dztyr7fPvLA3PvZc6dZf+odySn7KwBBL5twddqPKU2r+kzW2g1fnYi4saQdaVqjEXbXAt9oKV4XrkbnN7MbUbLP2PNunsqmdq31fCnlpNtbS9jf/K5rjsn1rj83q3d2NO8jpTPInkut9SwwbUf3uYj/ab101eDiq/507jleOz7uCHo7KFenj1jStOo30qkcDnmb5qoTFTeWtCNNa3TC7krgTYS90flNm8KeinO6ZK0PiFobX1LhVLtt6+WCV201unu91nOvWsJ++XU3yG1/94V5z/NUPzrfosLuQtQRdDdfpq57JU2r6whUp/92pGmNVtjbLfCmwq7sq3V+Mxu0VmbsebPuRh8BG8KuC7qeICb9IdAOYW/H7v6UJYLeaFSF/f4vdgyLupyGV9wE2pWmNXphb5fAmwh7o/ObNoU9vfdZPwbS6KOXCmIrS/F5R/TauRSfPWrTyOdm30fQmyUXVj0f07SGFYFqeNOuNK0Ie4ZAWfngTYQ9vWyh1jnK7HnrRjP2WskWzrvokmRVILv5rJHoNbt5TqFO66rbqExyuZtuntNXPFzsekfQq/FFWgUrfE3TWgV2odnQrjStCHuNkWNb4E1zgdc7v5k1OXueU13jmF3K14+HqSN36szokYP75pb7s/dD63dBZ/tr5bibfm5WP3PaKJe7ssHkuFsjYW/046XZLxQEvVly4dazmaY1XEpxeHb60j45b8Vg253tmJ2dLeFepLb7Ya1D2wJvzTAaqhQBBL1S4aiUMbbTtFbKOYwpTKCdaVqZsRcMCwJfEFRkxRD0yAJu6G4ZaVoNTaB4hQi0K00rwm4YdATeEFigxRH0QANr2a0y0rRaNpHm2kSgnWlaEfYmg4rANwnO82oIuucBbLP5ZaRpbbMLdGeBQLvTtCLsLQYNgW8RoCfVEXRPAlUxM8tK01oxNzGnAYF2p2lF2C0NSQTeEsiKNYOgVywgHplTZppWjzBgqoi0O00rwm552CHwloE6ag5BdwQ+oG7LTNMaEKYoXGl3mlaEvaRhpQT+mb1jsvvIhKidsbz8IICg+xEnH6yMKU2rD/FwZaOLNK0Ie8nRRuBLBmypeQTdEkiamSNw99MHZYpf9dGPCHWN7FtPXygL+7qcseCCmpLQI/AlgW2xWQS9RYBUr0lA7YhH1xkgHdIh564YcAoCYS8ZPwJfMuCCzStBP2lhr7x6eb8s6HX3S7qguRSDAAQg0DQBhL1pdGYVEXgzXrZKI+i2SNIOBCDgCwGEvc2RQuDbAxxBbw9neoEABKpHAGF3FBMEvhzwCHo5XGkVAhDwhwDC7jhWCLydACDodjjSCgQg4D8BhL0iMUTgmwsEgt4cN2pBAALhEkDYKxZbBL5YQBD0YpwoBQEIxEcAYa9ozBH4/MAg6BUdsJgFAQhUhgDCXplQ5BuCwL/MBUGv+EDFPAhAoDIEEPbKhKK+IbEKPILuyQDFTAhAoDIEEPbKhKKYIbEIPIJebDxQCgIQgECWAMLu6ZgIVeARdE8HJGZDAAKVIYCwVyYUzRkyMjEtmwNIF4ugNxd/akEAAhBgxh7oGEgEft+Y7D7sVz54BD3QAYlbEICAMwLM2J2hL6djXwQeQS8n/rQKAQhAAGEPdAxUVeBTQV80fI4bAAAgAElEQVS1vF+GSJ8a6OjDLQhAwCUBhN0l/Tb0XRWBR9DbEGy6gAAEICAiCHskwyAV+F2HJ2R2tn1OI+jtY01PEIAABBQBhD2ycdCuGTyCHtnAwl0IQKAyBBD2yoSivYaUNYNH0NsbR3qDAAQgkCWAsEc+JmwJPIIe+UDCfQhAoDIEEPbKhMKtIc0KPILuNm70DgEIQIAZO2OgLoGiAp8I+qJeWbWMY2sMKQhAAAJVIsCMvUrRqJAttQQeQa9QkDAFAhCAQA4BhJ1hUWgGv3dkSpYPdTNDZ7xAAAIQqDgBhL3iAaqKef/wk5/Ke/7dv62KOdgBAQhAAAI1CCDsDI1CBK655hq57bbbCpWlEAQgAAEIuCOAsLtj71XPCLtX4cJYCEAgYgIIe8TBN3EdYTehRVkIQAAC7ggg7O7Ye9Uzwu5VuDAWAhCImADCHnHwTVxH2E1oURYCEICAOwIIuzv2XvWMsHsVLoyFAAQiJoCwRxx8E9cRdhNalIUABCDgjgDC7o69Vz0j7F6FC2MhAIGICSDsEQffxHWE3YQWZSEAAQi4I4Cwu2PvVc8Iu1fhwlgIQCBiAgh7xME3cR1hN6FFWQhAAALuCCDs7th71TPC7lW4MBYCEIiYAMIecfBNXEfYTWhRFgIQgIA7Agi7O/Ze9YywexUujIUABCImgLBHHHwT1xF2E1qUhQAEIOCOAMLujr1XPSPsXoULYyEAgYgJIOwRB9/EdYTdhBZlIQABCLgjgLC7Y+9Vzwi7V+HCWAhAIGICCHvEwTdxHWE3oUVZCEAAAu4IIOzu2HvVM8LuVbgwFgIQiJgAwh5x8E1cR9hNaFEWAhCAgDsCCLs79l71jLB7FS6MhQAEIiaAsEccfBPXEXYTWpSFAAQg4I4Awu6OvVc9I+xehQtjIQCBiAkg7BEH38R1hN2EFmUhAAEIuCOAsLtj71XPCLtX4cJYCEAgYgIIe8TBN3EdYTehRVkIQAAC7ggg7O7Ye9Uzwu5VuDAWAhCImADCHnHwTVxH2E1oURYCEICAOwIIuzv2XvWMsHsVLoyFAAQiJoCwexT8H/3oR/KFL3xBvvGNb8gFF1wwz3L13s033yxf+9rX5IwzzrDuFcJuHSkNQgACECiFAMJeCtbyGv36178uGzZskK9+9auyZMmSpKODBw/Kxz72MfnoRz96jODbsgRht0WSdiAAAQiUSwBhL5ev9dZTEV+zZo185CMfSdpXYq9e6d/Tmb36txNPPHHeLL7ee/WMRdith5IGIQABCJRCAGEvBWu5jT722GPy4Q9/OFmSVy+1/J7O4JVwP/roo/LpT39a+vv7RZVN39+6deu8svp76ey/luUIe7kxpXUIQAACtggg7LZItrkdJeC333677N+/Xz7/+c8nS/BqNv/Zz342WZbXn7OrGf1pp50mK1eunCfsJiYj7Ca0KAsBCEDAHQGE3R37lnoeGxuTL37xi7JixYq5Jfht27Ylz9mff/75Y9r+zGc+I2vXrk3q3H333cn7eZvwmLG3FBYqQwACEHBOAGF3HoLmDUhn4ldccUXSiBL2z33uc8n/Gu2MV3W//e1vH/MMHmFvPh7UhAAEIFAFAgh7FaLQpA1ZYTfdHZ/O+i+88EJJfxwg7E0Gg2oQgAAEKkIAYa9IIJoxIyvsqg317P0HP/jB3GY6XezV+/pGO5MZPs/Ym4kQdSAAAQi0nwDC3n7m1nrME3bVeLrMnnakP0uv9149wxB2a2GjIQhAAAKlEkDYS8UbTuMIezixxBMIQCBsAgh72PG15h3Cbg0lDUEAAhAolQDCXirecBpH2MOJJZ5AAAJhE0DYw46vNe8QdmsoaQgCEIBAqQQQ9lLxhtM4wh5OLPEEAhAImwDCHnZ8rXmHsFtDSUMQgAAESiWAsJeKN5zGEfZwYoknEIBA2AQQ9rDja807hN0aShqCAAQgUCoBhL1UvOE0jrCHE0s8gQAEwiaAsIcdX2veIezWUNIQBCAAgVIJIOyl4g2ncYQ9nFjiCQQgEDYBhD3s+FrzDmG3hpKGIAABCJRKAGEvFW84jSPs4cQSTyAAgbAJIOxhx9eadwi7NZQ0BAEIQKBUAgh7qXjDaRxhDyeWeAIBCIRNAGEPO77WvEPYraGkIQhAAAKlEkDYS8UbTuMIezixxBMIQCBsAgh72PG15h3Cbg0lDUEAAhAolQDCXirecBpH2MOJJZ5AAAJhE0DYw46vNe8QdmsoaQgCEIBAqQQQ9lLxhtM4wh5OLPEEAhAImwDCHnZ8rXmHsFtDSUMQgAAESiWAsJeKN5zGEfZwYoknEIBA2AQQ9rDja807hN0aShqCAAQgUCoBhL1UvH42fueddx5j+MaNG2X16tXz/n12dlauvPJKP53EaghAAAKBEkDYAw1sK24NDw/LunXrZGJiomYzvb29sn79elmwYEErXVEXAhCAAAQsE0DYLQMNpblbbrlFbr/99pruXH311XLdddeF4i5+QAACEAiGAMIeTCjtOlJv1s5s3S5rWoMABCBgkwDCbpNmYG3VmrUzWw8s0LgDAQgERQBhDyqcdp3Jm7UzW7fLmNYgAAEI2CaAsNsmGlh72Vk7s/XAAow7EIBAcAQQ9uBCatchfdbObN0uW1qDAAQgUAYBhL0MqoG1mc7ama0HFljcgQAEgiSAsAcZVrtOpbN2zq3b5UprEIAABMoggLBbojozK/LgtsMyOjltqcVqNTM7MysdnR3VMqqi1gz2dMnbTl8oXfCqaIQwCwJhE0DYLcX3pZFJ2bBrRKaUwvOKmsCivi552xmLomaA8xCAgDsCCLsl9pv2jMrW/eOWWqMZXwl0dIisWjYgZy/v99UF7IYABDwngLBbCuD9Ww/JyMSMpdZoxlcCPZ0d8qZTFshxA92+uoDdEICA5wQQdgsBHJ+alXu3HBRW4S3A9LwJ9Vj9Xecs9dwLzIcABHwmgLBbiN7uwxPy+AujPF+3wNL3JpYNdstFpy703Q3shwAEPCaAsFsI3sbdI7LrcO0Upxa6oAkPCKhd8K85fkDOWNrngbWYCAEIhEoAYbcQ2Z8+c0jGp3i+bgGl1010d3bIH522UBb2dXntB8ZDAAJ+E0DYW4zf8MS0PLT9iEzzgL1Fkv5X7+3qkLWrlvjvCB5AAAJeE0DYWwzfswfHZdOeowh7ixxDqH7iwl5Zc/JQCK7gAwQg4DEBhL3F4P1ix7Coy2l4xU1ALcOft2JQVi7ujRsE3kMAAs4JIOwthuDHTx9ktt4iwxCqd3Z0yGVnLZL+7s4Q3MEHCEDAYwIIewvBO3h0Sv5lxzDH3FpgGErVwZ5OueysxaG4gx8QgIDHBBD2FoL3zL4xeXrvUS6maYFhKFVPX9qXLMXzggAEIOCaAMLeQgQe2n5YDo2Fmc2tBSzRVVXXyL7hpCFZsaAnOt9xGAIQqB4BhL3JmKjTbf/41IEma1MtNALvPHsJaVpDCyr+QMBTAgh7k4FTO+Ef2zUik5xfb5JgONVI0xpOLPEEAiEQQNibjCJpWpsEF1g10rQGFlDcgUAABBD2JoNImtYmwQVWjTStgQUUdyAQAAGEvYkgqnvh791yiN3wTbALrYo6v/6uc7hGNrS44g8EfCaAsDcRPdK0NgEt0CqkaQ00sLgFAY8JIOxNBI80rU1AC7AKaVoDDCouQSAAAgh7E0H86eZDMj5NmtYm0AVVhTStQYUTZyAQDAGE3TCUpGk1BBZwcdK0BhxcXIOAxwQQdsPgkabVEFjAxUnTGnBwcQ0CHhNA2A2DZ5KmdfTIIfne33xadm753VwvH/irr8jpr329Ya/mxX926zeTSpdfe4N55VdqpPZfft2H2mKzbujkxLj86Jt/K088fN8x9p//5svkihs+Lj29fVKv3MqzXiPv/+QXZc/OZ+Vnt9yc/PfgQjuJWkjT2vSwoiIEIFAyAYTdEHDRNK3b//Vx+daXPiG6kL+0+zn57k2fkouv+lNZffE7DHs2K25D2M16tFs6Few1l7573o+K9N8XLzs++dFSq5xujYqFbWEnTavdeNMaBCBgjwDCbsDywNEpUTP2qQbXyNab6WZFJjvjfMt7rp2bZW988G7Zve1pGRsdmZu5vvdDn5j3o0AJ+D/9w62JF+kMVc1KdWHPirz6gfHD9f9drlz3l3L8SaeK6ufOm7+StLFk+Qq5/sYvJ/+e54deVu9PtXnP99bLqWefJ/f+v/+TtKXPrA0wJ0XrCbbOsKevP5nZZ38AlC3spGk1jSjlIQCBdhFA2A1IF03TWnSGWGv2mc5GUxFNZ/2q3R+uv2lOeNX7W5/cOLcsrf/9wTv+PvFMzWrrCfvIoYPzZrO67aq+epSQLsWr9jfcd9fckrb+95Ejh5LViPMuuiTpM/1RsOaydze1OlF1YSdNq8EHh6IQgEBbCSDsBriLpmnNCm6tLvJ+AOiz6Z2bN80Tbn0GfcLK0+aJbraPojP2rLDr7TTqLxXfM89dLStXvW7eKoBqp5XHAaZL8dln8frKQ9EfWkWHAmlai5KiHAQg4IIAwl6Qukma1qLCnldOiekd62+Ste9fJ/WEfWjxkmOEVHelqLArAdQ3qel7AnRhr9Wf6mfZq1aWJux5m+f0xxWunrGTprXgB4diEIBA2wkg7AWRm6RpLTpDrIKwq2fp6St9Xp/OdocWLp5bFbAp7NnTAnnP4vMEW/F68I7vzD2KUHa7EHbStBb80FAMAhBwQgBhL4h904ujsvXAeKHS9TbP6Uvtecvg7V6K14VdF0q1vH7OBRfNCXve0r+LpXj142P7pt/MPedvt7CTprXQR4BCEICAQwIIe0H4pmla6x13SzeYFdk8p2+Oy/5gyM749ZWCh//xtsQztZEtu+lNieNvH3kgmflmf1zoPyz0Gbs6e99o85y+0171XcYz9pTB0hUnJZsG1audu+JJ01rwA0MxCEDAGQGEvQD6ZtO0pufWD+59ca6X7AU1jY671RP2VDzT4276hjFdVLN9XPORv5ZfP/ST5Dm+mrHrR+ZUm6mNpsfd2iHsyr6Uq/qBdPFVf9ZWYSdNa4EPDEUgAAGnBBD2AvhJ01oAUiRFSNMaSaBxEwIeE0DYCwSPNK0FIEVQhDStEQQZFyEQAAGEvUAQSdNaAFIERUjTGkGQcRECARBA2BsEkTStAYxySy6QptUSSJqBAARKJYCwN8BLmtZSx59XjZOm1atwYSwEoiWAsDcIvUma1mhHUQSOk6Y1giDjIgQCIYCwNwhk0TStLsZDXr53ZYd+7K2IXer8+4b775pLJlOkTl6ZIpfF1GvbZf73Rj6TprURId6HAASqQgBhrxOJomlaXQVTv1dev0EumwWukX0IeyNCIqRpbcyIEhCAQDUIIOx14lA0TaurUNYSdmVP9la67Ow+TaSS3pCn6uj51WvlaFfl8tpKL4pJk7akeeNr9Zsy0/tRd8YfeHH3XJpYV1zz+iVNa5WigS0QgEA9Agh7HTpF07S6GmL1hF3dznbP99bLVetuTMzT86rrd7yvvvgdkp2x17uqtqevP7npTd0lr+rqbZ130aXzboHLLq1n+8276lbdope9nc8V37Rf0rS6jgD9QwACJgQQ9hq0TNK0mgC3WbaesGfTv+57YWdyb3z60oV/z85n556xT46PzaWNzWZ+U+lZl55wkvzslpvnkrDo/mSfsSvhrtXvH//Hv5Cf3fq/534g6CsBl1/3IVF301fpRZrWKkUDWyAAAWbsTYwBkzStTTRvpUpRYf/NQ/dIep+83nG69K4Lu7rX/rs3fUr0++3TOmp5Xb30++vrCXv2Dvq0rOr3qv/0X+WO//Xf5i27t7r5zgrUnEZI01oWWdqFAATKIMCMvQZVkzStZQSmSJtFl+L1TG957epL8UrQs8lc9Dp5OeTT97PCXC+7W94O+CoKu0rTevayAVm1vL9ISCgDAQhAwDkBhL1GCEzTtLqIZNHNc7995P6as2xlty7sailefx6f9UtPDTu4cPG8t/OW4hvN7tNn9aqhKh53I02ri5FNnxCAQCsEEPYces2maW0lEM3ULXrcLRXMNZe9O9nwpl76zHvXlqfmnWPPbmrTBffks86Zt3lOtZXOzLMpVIv0qz+vT5fuq7R5jjStzYxM6kAAAi4JIOw59H1J01rrghr92FrqXjY3vDpadsUNH5ee3r65mfLwoQNy/Y1frpujXZ9Z79zyu6R5va30+Fp6nK5ev+kPjDtv/krSztv/5IPy1IaHK3XcjTStLr+e6BsCEGiGAMKeQ400rc0MpfDqkKY1vJjiEQRiIICw50SZNK0xDP3GPpKmtTEjSkAAAtUjgLBnYqLStP7T9iMypQ6y84qaAGlaow4/zkPAWwIIeyZ0pGn1dixbN5w0rdaR0iAEINAGAgh7BjJpWtsw6jzogjStHgQJEyEAgVwCCHsGS5XTtDKG20eANK3tY01PEICAXQIIu8az6mla7Yae1uoRIE0r4wMCEPCVAMKuRa7qaVp9HWQ+2k2aVh+jhs0QgIAigLBr46DqaVoZsu0hQJrW9nCmFwhAoBwCCPsrXH1I01rOEKDVPAKkaWVcQAACvhJA2F+J3J6RSdm4a0QmOb/u61i2ZjdpWq2hpCEIQMABAYT9FehPvjgq2w6MOwgBXVaJAGlaqxQNbIEABJohgLC/Qs2HNK3NBJg6ZgRI02rGi9IQgED1CCDsIuJLmtbqDZ/wLCJNa3gxxSMIxEYAYRcRX9K0xjY4XfhLmlYX1OkTAhCwSQBhFxHStNocUv62RZpWf2OH5RCAwO8JIOwi8tPNB2V8mmxusX8wSNMa+wjAfwiEQSB6YSdNaxgD2YYXpGm1QZE2IAAB1wSiF/ZnD4zLppeOyjTn112PRef9k6bVeQgwAAIQsEAgemEnTauFURRAE6RpDSCIuAABCCQEohd20rTySVAESNPKOIAABEIhELWwk6Y1lGHcuh+kaW2dIS1AAALVIBC1sJOmtRqDsApWkKa1ClHABghAwAaBqIWdNK02hpD/bZCm1f8Y4gEEIPB7AtEKu9oE/8DWQ3J0aobxEDmB/u5OueSMRaIuqOEFAQhAwHcC0Qq7Chwn3IoP3zvvvFPe+973Fq/gWUk03bOAYS4EIFCTQNTCzrgoTuCaa66R2267rXgFSkIAAhCAgBMCCLsT7P51irD7FzMshgAE4iSAsMcZd2OvEXZjZFSAAAQg4IQAwu4Eu3+dIuz+xQyLIQCBOAkg7HHG3dhrhN0YGRUgAAEIOCGAsDvB7l+nCLt/McNiCEAgTgIIe5xxN/YaYTdGRgUIQAACTggg7E6w+9cpwu5fzLAYAhCIkwDCHmfcjb1G2I2RUQECEICAEwIIuxPs/nWKsPsXMyyGAATiJICwxxl3Y68RdmNkVIAABCDghADC7gS7f50i7P7FDIshAIE4CSDsccbd2GuE3RgZFSAAAQg4IYCwO8HuX6cIu38xw2IIQCBOAgh7nHE39hphN0ZGBQhAAAJOCCDsTrD71ynC7l/MsBgCEIiTAMIeZ9yNvUbYjZFRAQIQgIATAgi7E+z+dYqw+xczLIYABOIkgLDHGXdjrxF2Y2RUgAAEIOCEAMLuBLt/nSLs/sUMiyEAgTgJIOxxxt3Ya4TdGBkVIAABCDghgLA7we5fpwi7fzHDYghAIE4CCHuccTf2GmE3RkYFCEAAAk4IIOxOsPvXKcLuX8ywGAIQiJMAwh5n3I29RtiNkVEBAhCAgBMCCLsT7P51irD7FzMshgAE4iSAsMcZd2OvEXZjZFSAAAQg4IQAwu4Eu3+dIuz+xQyLIQCBOAkg7HHG3dhrhN0YGRUgAAEIOCGAsDvB7l+nCLt/McNiCEAgTgIIe5xxN/YaYTdGRgUIQAACTggg7E6w+9cpwu5fzLAYAhCIkwDCHmfcjb1G2I2RUQECEICAEwIIuxPs/nWKsPsXMyyGAATiJICwxxl3Y68RdmNkVIAABCDghADC7gS7f50i7P7FDIshAIE4CSDsccbd2GuE3RgZFSAAAQg4IYCwO8HuX6cIu38xw2IIQCBOAgh7nHE39hphN0ZGBQhAAAJOCCDsTrD71ynC7l/MsBgCEIiTAMIeZ9yNvUbYjZFRAQIQgIATAgi7E+z+dYqw+xczLIYABOIkgLDHGXdjrxF2Y2RUgAAEIOCEAMLuBLt/nSLs/sUMiyEAgTgJIOxxxt3Ya4TdGBkVIAABCDghgLA7we5fpwi7fzHDYghAIE4CCHuccTf2GmE3RkYFCEAAAk4IIOxOsPvXKcLuX8ywGAIQiJMAwh5n3I29RtiNkVEBAhCAgBMCCLsT7P51irD7FzMshgAE4iSAsMcZd2OvEXZjZFSAAAQg4IQAwu4Eu3+dIuz+xQyLIQCBOAkg7HHG3dhrhN0YGRUgAAEIOCGAsDvB7l+nCLt/McNiCEAgTgIIe5xxN/YaYTdGRgUIQAACTggg7E6w+9cpwu5fzLAYAhCIkwDCHmfcjb1G2I2RUQECEICAEwIIuxPs/nWKsPsXMyyGAATiJICwxxl3Y68RdmNkVIAABCDghADC7gS7f50i7P7FDIshAIE4CSDsccbd2GuE3RgZFSAAAQg4IYCwO8HuX6cIu38xw2IIQCBOAgh7nHE39hphN0ZGBQhAAAJOCCDsTrD71ynC7l/MsBgCEIiTAMIeZ9zren377bcf8/4TTzwh559//jH/fvXVV0MQAhCAAAQqRABhr1AwqmLK6OiorFu3TsbGxmqa1N/fL+vXr5fBwcGqmI0dEIAABCAgIgg7wyCXwK233irf//73a9J53/veJ9deey30IAABCECgYgQQ9ooFpCrm1Ju1M1uvSpSwAwIQgMCxBBB2RkVNArVm7czWGTQQgAAEqksAYa9ubJxbljdrZ7buPCwYAAEIQKAuAYSdAVKXQHbWzmydAQMBCECg2gQQ9mrHx7l1+qyd2brzcGAABCAAgYYEEPaGiCiQztqZrTMWIAABCFSfAMJe/Rg5tzCdtXNu3XkoMAACEIBAQwIIe0NEdgtMTM/K0ckZGZuaSf4cnZyWkQn154yMT81IV2eHjE3O2O3UQmuzMisd0mGhJbtNDPR0ytTMrPR1d8pgT6cM9ao/u0T9e393Z/Jnb1f17LZLgdYgAAEI/J4Awl7yaJiYmpH9R6flxeFJ2TMyKTMzSiIlkciZ2VmZVn/hZZWA0vHOjo6XOb/y3ycM9ciKBT1y3ECX9HZ3Wu2PxiAAAQhUiQDCXlI0XhqZlOcOTsi+0UmZnRWZnEHBS0JduNmezg7p6OiQZYPdcuqSXjl+qKdwXQpCAAIQ8IUAwm45Us8dHJdn9o0lQj7JdNwyXXvNKZHv6eqQVy/rl1OX9NlrmJYgAAEIOCaAsFsKwI6D4/K7vWMyNa2W15mdW8JaejNqT0N3Z4ecsxyBLx02HUAAAm0hgLC3iHnr/nHZcWg82QinNnHx8pOAEne10e6UxX1y5nHM4P2MIlZDAAKKAMLewjjYtGdUnj0wwQy9BYZVq6pm8Kct6ZXXnUA62qrFBnsgAIFiBBD2Ypzmldp9eEKe3juWHFVjkt4EwIpXUTvq1dG5s5f3y0mLeituLeZBAAIQmE8AYTccEU++OCrbD44nO915hU1AHZU7fUmfnLuC2XvYkcY7CIRFAGE3iOfG3SPywvCkTDNNN6Dmd1G1NP+qBT2y+qQhvx3BeghAIBoCCHvBUP9q17DsG5niPHpBXiEVU0fjlg11yxtPXhCSW/gCAQgESgBhLxDYR3cOy4FRRL0AqmCLKHFfOtAtF56CuAcbZByDQCAEEPYGgUTUAxnpFtxIxH2wWy5cibhbwEkTEIBASQQQ9jpgn9wzmlwLyzP1kkafh80mx+EW98rr2FDnYfQwGQJxEEDYa8T5heEJefz5ozIxXb1Ma3EMzep62dfdIee/aijZVMcLAhCAQNUIIOw1IvLgtsNyZHy6avHCnooQWNjXJRefsagi1mAGBCAAgd8TQNhzRsMvdgzLgaNTXBHLJ6UmAbUkf9xAt/wBm+kYJRCAQMUIIOyZgKhb5dQlNONkZqvYUK2eOX3dnXLuCQPcTle90GARBKImgLBnwv/zbYflMEvwUX8oTJxf1Nclb2NJ3gQZZSEAgZIJIOwa4M17x2TL/jGW4EsedCE1r7LCnbWsX1Yt6w/JLXyBAAQ8JoCwa8G7f+thGZlgw5zH49mJ6UO9XXLpmWykcwKfTiEAgWMIIOyvIFEzdTVjJ6c6nxJTAmojnZqxv5pZuyk6ykMAAiUQQNhfgXrvlkNydJIz6yWMsSiaHOjplLeftTgKX3ESAhCoNgGEXUT2DE+Kytw2Sda2ao/WClvX3dUhq08ckhVcWlPhKGEaBOIggLCLyL/sOCJ7R6biiDhelkZg+VCP/CHn2kvjS8MQgEAxAtEL+/jUjDyw7bBMcm692IihVE0CPV0dcskZi0Sdb+cFAQhAwBWB6IX9uYPjsmnPUTbNuRqBAfWrjr697oQBOXVJX0Be4QoEIOAbgeiF/Vc7R0QlfOEFARsEVGKYN5LW1QZK2oAABJokEL2w37P5oEywDN/k8KFalkBvV4esXbUEMBCAAAScEYha2PeNTskvdw6zDO9s+IXXsVqOf+PJC2T5UHd4zuERBCDgBYGohX3zvqOydd84x9y8GKp+GJlcMXtcv6xazhWzfkQMKyEQHoGohf03z4/KjkPj4UUVj5wSWLm4T95w4qBTG+gcAhCIl0DUwv7Pzx5J8q7zgoBNAksHuuWPTltos0naggAEIFCYQNTC/sDWwzIccdKXjQ/eLXfe/JXcwfKW91wrl197Q+GBlBZUbW59cqNcccPHpac3zmNfC3o75ZIzuV7WePBQAQIQsEIgamGPPZubEuF9L+xsSsBrjT6EXWSot1MuRditfEHRCAQgYE4gamG/b8shGY048UsRYVdldm97WsZGR+SJh+9LRth7P/QJWX3xO5L/Hj1ySL73N5+WnYAEC74AAAcjSURBVFt+J0uWr5BVb7gwKRvzjH2wp1MuIyGM+bcRNSAAASsEEHaEve6MPV2u/8BffUVOf+3rZfu/Pi4/XH+TXH/jl2Vo4eJE1Ndc9u5E6F/a/Zx896ZPySlnn4uwI+xWvqBoBAIQMCeAsEcu7LWesadCnl1aT2fol1/3oWS0/eyWm+X9n/yiDC58+ZkyS/EipHA1/yKiBgQgYI8Awh65sDd6xl5P2A/s2X3MRjk1o99w/11Rz9gRdntfULQEAQiYE0DYEfaGS/H6Lnd9xo6w53/geMZu/kVEDQhAwB4BhB1hb1rYWYpH2O19FdESBCBgi0DUws5xt8bH3eotxZ981jnyo2/+rZx57mo2z2mfyKHeLrn0zEW2PqO0AwEIQMCIQNTC/sC2wzI8Pm0ELKTC9S6oWXnWa5JNcU899si85+j6UrzaJa8fd1N1zlnzZtmzc3vUz9gX9HbJJQh7SB8VfIGAVwSiFnaulPVqrHpj7JKBbnkLV8p6Ey8MhUBoBKIW9l8/PyI7D02EFlP8cUyAJDCOA0D3EIicQNTC/vTeMdm6f4x87JF/CGy639PZIWcc1ydnLx+w2SxtQQACEChMIGph3zsyJb/aNYywFx4uFGxEQOVjf+PJC2T5UHejorwPAQhAoBQCUQu7InrP5oMyMT1bClwajY9Ab1eHrF21JD7H8RgCEKgMgeiF/Zc7h+XF4cnKBARD/CawYkGvvGnlkN9OYD0EIOA1geiF/dkD47LppaMyPcOs3euRXAHjuzo75LXHD8jpS+PMQ1+BEGACBCAgItEL+9jUjKjz7FMsx/OBaJGA2jh38ZmLpL+7s8WWqA4BCECgeQLRC7tC94sdw/LSCMvxzQ8jaioCywe75Q9PXQgMCEAAAk4JIOwiyTN2daZ9klm708Hoc+dqN/zqk4ZkxYIen93AdghAIAACCPsrQbx3yyE5GnFCmADGslMXSNXqFD+dQwACGgGE/RUYW/aPibqwhk10fD5MCahNc2cv65ezlvWbVqU8BCAAAesEEHYNaezZ3qyPrkgaHOrtlEvPXByJt7gJAQhUnQDCrkVo874x2bKPK2arPmirZJ96tq5m6quYrVcpLNgCgagJIOyZ8D+47bAciTiVa9SfhiacX9jXJRefQe71JtBRBQIQKIkAwp4Bu/vIpDz5wqiMT8+UhJxmQyHQ19Uh575qUE5a2BuKS/gBAQgEQABhzwmiOte+/+gUG+kCGOBluaA2zB030C1/cMqCsrqgXQhAAAJNEUDYa2BjSb6p8RRNJZbgowk1jkLAOwIIe42QvXBkUp54cVTGp1iS925Ul2xwX3ennLdiQE5kCb5k0jQPAQg0QwBhr0Nt056j8uzBcZbkmxlZgdZRS/CnLu6Tc1cMBOohbkEAAr4TQNgbRPDRncNyYHRKJsn+5vtYb9l+leRl6WC3XLiS5+otw6QBCECgNAIIewG0ajPdwaOIewFUwRbp6eqQJf1slgs2wDgGgYAIIOwFg/nLncOyn5l7QVphFVMz9eMGu+VNzNTDCizeQCBQAgi7QWAf2z2SZILjPnkDaJ4XVc/UVwz1yAUnD3nuCeZDAAKxEEDYDSOtdso/d2BcZg3rUdw/Ah0icurSPjl/xaB/xmMxBCAQLQGEvYnQ7zo8kWSCU2leZ2aR+CYQVrpKZ4fIQE+XnL28X05exK1ylQ4WxkEAAscQQNhbGBS/fXFUdhyaYGm+BYZVq9rV0SGnLOmV85ilVy002AMBCBQkgLAXBFWrmMoGt+PwhIxNzsgUR+JapOmuusrS1t/TKacs6iWvursw0DMEIGCBAMJuAaJq4tkD4/LU3qMyPSvM4C0xbUczaobe1Sly9vEDcvqSvnZ0SR8QgAAESiWAsFvGq26qe2bfmExOzzKDt8zWZnPqCFt3V4e8elm/nIag20RLWxCAgGMCCHtJAdgzPJlcR3vg6LTMzs5yc11JnE2aVWLe0SGydKA7EfMTFvSYVKcsBCAAAS8IIOwlh2lsakYOHJ2SF49Myp6RSVGb6NN99GpHPY/l7QdA7WrvVAouIur/1X8eP9Qjr1rYk4h6f3en/U5pEQIQgEBFCCDsbQ6EyhZ3dGpGxiZnkz9HJ6ZlZGJGRqdmkkxyahOXOkbHqxiBwZ7OZDVEZVwb7O6Uod5OGeztkoHuTunv6Uj+VO/xggAEIBALAYS9YpFWs/mX55q8ihCAVxFKlIEABGIigLDHFG18hQAEIACB4Akg7MGHGAchAAEIQCAmAgh7TNHGVwhAAAIQCJ4Awh58iHEQAhCAAARiIoCwxxRtfIUABCAAgeAJIOzBhxgHIQABCEAgJgIIe0zRxlcIQAACEAieAMIefIhxEAIQgAAEYiKAsMcUbXyFAAQgAIHgCSDswYcYByEAAQhAICYCCHtM0cZXCEAAAhAIngDCHnyIcRACEIAABGIi8P8BwL1xHpm+FisAAAAASUVORK5CYII=&quot;&gt;&lt;/div&gt;&lt;div id=&quot;SDCloudData&quot; style=&quot;display: none&quot;&gt;&lt;/div&gt;" style="text;whiteSpace=wrap;html=1;" vertex="1" parent="WIyWlLk6GJQsqaUBKTNV-1">
          <mxGeometry x="180" y="100" width="30" height="30" as="geometry" />
        </mxCell>
      </root>
    </mxGraphModel>
  </diagram>
  <diagram id="ZU09b2y-3FRFtH5SW2Jm" name="Page-2">
    <mxGraphModel dx="2031" dy="1134" grid="1" gridSize="10" guides="1" tooltips="1" connect="1" arrows="1" fold="1" page="1" pageScale="1" pageWidth="827" pageHeight="1169" math="0" shadow="0">
      <root>
        <mxCell id="xVMYf1Pby-j8Bl-tOCj4-0" />
        <mxCell id="xVMYf1Pby-j8Bl-tOCj4-1" parent="xVMYf1Pby-j8Bl-tOCj4-0" />
        <mxCell id="onDnGdGGjzdDGfwQyyna-2" value="" style="edgeStyle=orthogonalEdgeStyle;rounded=0;orthogonalLoop=1;jettySize=auto;html=1;" edge="1" parent="xVMYf1Pby-j8Bl-tOCj4-1" source="onDnGdGGjzdDGfwQyyna-3">
          <mxGeometry relative="1" as="geometry">
            <mxPoint x="360" y="210" as="targetPoint" />
          </mxGeometry>
        </mxCell>
        <mxCell id="onDnGdGGjzdDGfwQyyna-3" value="Read Received Signal Strength (C/N0 or AGC)" style="fontSize=14;zwfType=basicShape;rounded=0;strokeWidth=2;strokeColor=#474D66;whiteSpace=wrap;html=1;" vertex="1" parent="xVMYf1Pby-j8Bl-tOCj4-1">
          <mxGeometry x="280" y="80" width="160" height="72" as="geometry" />
        </mxCell>
        <mxCell id="onDnGdGGjzdDGfwQyyna-4" value="" style="edgeStyle=orthogonalEdgeStyle;rounded=0;orthogonalLoop=1;jettySize=auto;html=1;" edge="1" parent="xVMYf1Pby-j8Bl-tOCj4-1" source="onDnGdGGjzdDGfwQyyna-6" target="onDnGdGGjzdDGfwQyyna-8">
          <mxGeometry relative="1" as="geometry" />
        </mxCell>
        <mxCell id="onDnGdGGjzdDGfwQyyna-5" value="" style="edgeStyle=orthogonalEdgeStyle;rounded=0;orthogonalLoop=1;jettySize=auto;html=1;" edge="1" parent="xVMYf1Pby-j8Bl-tOCj4-1" source="onDnGdGGjzdDGfwQyyna-6" target="onDnGdGGjzdDGfwQyyna-11">
          <mxGeometry relative="1" as="geometry" />
        </mxCell>
        <mxCell id="onDnGdGGjzdDGfwQyyna-6" value="Is Strength &lt;br&gt;&amp;lt;Threshold?" style="fontSize=14;zwfType=basicShape;strokeWidth=2;rhombus;whiteSpace=wrap;html=1;strokeColor=#474D66;" vertex="1" parent="xVMYf1Pby-j8Bl-tOCj4-1">
          <mxGeometry x="301" y="210" width="118" height="110" as="geometry" />
        </mxCell>
        <mxCell id="onDnGdGGjzdDGfwQyyna-7" value="" style="edgeStyle=orthogonalEdgeStyle;rounded=1;orthogonalLoop=1;jettySize=auto;html=1;curved=0;startArrow=none;endArrow=none;dashed=0;" edge="1" parent="xVMYf1Pby-j8Bl-tOCj4-1" source="onDnGdGGjzdDGfwQyyna-8">
          <mxGeometry relative="1" as="geometry">
            <mxPoint x="580" y="120" as="targetPoint" />
          </mxGeometry>
        </mxCell>
        <mxCell id="onDnGdGGjzdDGfwQyyna-8" value="Read Next Measurement" style="fontSize=14;zwfType=basicShape;rounded=0;strokeWidth=2;strokeColor=#474D66;whiteSpace=wrap;html=1;" vertex="1" parent="xVMYf1Pby-j8Bl-tOCj4-1">
          <mxGeometry x="500" y="229" width="160" height="72" as="geometry" />
        </mxCell>
        <mxCell id="onDnGdGGjzdDGfwQyyna-9" value="" style="edgeStyle=orthogonalEdgeStyle;rounded=0;orthogonalLoop=1;jettySize=auto;html=1;" edge="1" parent="xVMYf1Pby-j8Bl-tOCj4-1">
          <mxGeometry relative="1" as="geometry">
            <mxPoint x="580" y="120" as="sourcePoint" />
            <mxPoint x="440" y="120" as="targetPoint" />
          </mxGeometry>
        </mxCell>
        <mxCell id="onDnGdGGjzdDGfwQyyna-10" value="" style="edgeStyle=orthogonalEdgeStyle;rounded=0;orthogonalLoop=1;jettySize=auto;html=1;" edge="1" parent="xVMYf1Pby-j8Bl-tOCj4-1" source="onDnGdGGjzdDGfwQyyna-11" target="onDnGdGGjzdDGfwQyyna-12">
          <mxGeometry relative="1" as="geometry" />
        </mxCell>
        <mxCell id="onDnGdGGjzdDGfwQyyna-11" value="Perform Collaborative Localization" style="fontSize=14;zwfType=basicShape;rounded=0;strokeWidth=2;strokeColor=#474D66;whiteSpace=wrap;html=1;" vertex="1" parent="xVMYf1Pby-j8Bl-tOCj4-1">
          <mxGeometry x="280" y="390" width="160" height="72" as="geometry" />
        </mxCell>
        <mxCell id="onDnGdGGjzdDGfwQyyna-14" value="" style="edgeStyle=orthogonalEdgeStyle;rounded=0;orthogonalLoop=1;jettySize=auto;html=1;" edge="1" parent="xVMYf1Pby-j8Bl-tOCj4-1" source="onDnGdGGjzdDGfwQyyna-12" target="onDnGdGGjzdDGfwQyyna-13">
          <mxGeometry relative="1" as="geometry" />
        </mxCell>
        <mxCell id="onDnGdGGjzdDGfwQyyna-16" value="" style="edgeStyle=orthogonalEdgeStyle;rounded=0;orthogonalLoop=1;jettySize=auto;html=1;" edge="1" parent="xVMYf1Pby-j8Bl-tOCj4-1" source="onDnGdGGjzdDGfwQyyna-12" target="onDnGdGGjzdDGfwQyyna-15">
          <mxGeometry relative="1" as="geometry" />
        </mxCell>
        <mxCell id="onDnGdGGjzdDGfwQyyna-12" value="Estimated Loc fully/partially match true location?" style="fontSize=14;zwfType=basicShape;strokeWidth=2;rhombus;whiteSpace=wrap;html=1;strokeColor=#474D66;" vertex="1" parent="xVMYf1Pby-j8Bl-tOCj4-1">
          <mxGeometry x="280" y="520" width="159" height="150" as="geometry" />
        </mxCell>
        <mxCell id="onDnGdGGjzdDGfwQyyna-13" value="Conclusion&lt;br&gt;&amp;nbsp;RFI Not Detected" style="fontSize=14;zwfType=basicShape;strokeWidth=2;shape=parallelogram;perimeter=parallelogramPerimeter;whiteSpace=wrap;html=1;fixedSize=1;strokeColor=#474D66;" vertex="1" parent="xVMYf1Pby-j8Bl-tOCj4-1">
          <mxGeometry x="500" y="559" width="160" height="72" as="geometry" />
        </mxCell>
        <mxCell id="onDnGdGGjzdDGfwQyyna-15" value="Conclusion &lt;br&gt;RFI Detected" style="fontSize=14;zwfType=basicShape;strokeWidth=2;shape=parallelogram;perimeter=parallelogramPerimeter;whiteSpace=wrap;html=1;fixedSize=1;strokeColor=#474D66;" vertex="1" parent="xVMYf1Pby-j8Bl-tOCj4-1">
          <mxGeometry x="279" y="720" width="160" height="72" as="geometry" />
        </mxCell>
      </root>
    </mxGraphModel>
  </diagram>
</mxfile>
